<mxfile host="Electron" agent="Mozilla/5.0 (Windows NT 10.0; Win64; x64) AppleWebKit/537.36 (KHTML, like Gecko) draw.io/24.7.17 Chrome/128.0.6613.36 Electron/32.0.1 Safari/537.36" version="24.7.17" pages="7">
  <diagram name="B端产品设计流程" id="-ttcXo5MLGGQJkm3zArC">
    <mxGraphModel dx="1134" dy="741" grid="1" gridSize="10" guides="1" tooltips="1" connect="1" arrows="1" fold="1" page="1" pageScale="1" pageWidth="827" pageHeight="1169" math="0" shadow="0">
      <root>
        <mxCell id="0" />
        <mxCell id="1" parent="0" />
        <mxCell id="v1Tnr26gygapmUk2C5af-1" value="" style="endArrow=none;dashed=1;html=1;rounded=0;" parent="1" edge="1">
          <mxGeometry width="50" height="50" relative="1" as="geometry">
            <mxPoint x="40" y="200" as="sourcePoint" />
            <mxPoint x="1063.7142857142858" y="200" as="targetPoint" />
          </mxGeometry>
        </mxCell>
        <mxCell id="v1Tnr26gygapmUk2C5af-2" value="" style="endArrow=none;dashed=1;html=1;rounded=0;exitX=0;exitY=1;exitDx=0;exitDy=0;" parent="1" edge="1" source="dmXPy57i9Wh9vm7Y5LQy-21">
          <mxGeometry width="50" height="50" relative="1" as="geometry">
            <mxPoint x="80" y="640" as="sourcePoint" />
            <mxPoint x="80" y="50" as="targetPoint" />
          </mxGeometry>
        </mxCell>
        <mxCell id="v1Tnr26gygapmUk2C5af-3" value="" style="endArrow=none;dashed=1;html=1;rounded=0;" parent="1" edge="1">
          <mxGeometry width="50" height="50" relative="1" as="geometry">
            <mxPoint x="40" y="440" as="sourcePoint" />
            <mxPoint x="1060" y="440" as="targetPoint" />
          </mxGeometry>
        </mxCell>
        <mxCell id="v1Tnr26gygapmUk2C5af-4" value="整体阶段" style="text;html=1;align=center;verticalAlign=middle;whiteSpace=wrap;rounded=0;textDirection=vertical-lr;fontStyle=1;fontSize=16;" parent="1" vertex="1">
          <mxGeometry x="40" y="100" width="30" height="70" as="geometry" />
        </mxCell>
        <mxCell id="v1Tnr26gygapmUk2C5af-5" value="具体流程" style="text;html=1;align=center;verticalAlign=middle;whiteSpace=wrap;rounded=0;textDirection=vertical-lr;fontStyle=1;fontSize=16;" parent="1" vertex="1">
          <mxGeometry x="40" y="270" width="30" height="70" as="geometry" />
        </mxCell>
        <mxCell id="v1Tnr26gygapmUk2C5af-6" value="参与人员" style="text;html=1;align=center;verticalAlign=middle;whiteSpace=wrap;rounded=0;textDirection=vertical-lr;fontStyle=1;fontSize=16;" parent="1" vertex="1">
          <mxGeometry x="40" y="490" width="30" height="70" as="geometry" />
        </mxCell>
        <mxCell id="v1Tnr26gygapmUk2C5af-8" value="业务调研" style="text;html=1;align=center;verticalAlign=middle;whiteSpace=wrap;rounded=0;fontSize=16;fontStyle=1" parent="1" vertex="1">
          <mxGeometry x="108" y="160" width="80" height="30" as="geometry" />
        </mxCell>
        <mxCell id="v1Tnr26gygapmUk2C5af-9" value="业务问题诊断" style="text;html=1;align=center;verticalAlign=middle;whiteSpace=wrap;rounded=0;fontSize=16;fontStyle=1" parent="1" vertex="1">
          <mxGeometry x="102.5" y="80" width="125" height="30" as="geometry" />
        </mxCell>
        <mxCell id="v1Tnr26gygapmUk2C5af-11" value="设计解决方案" style="text;html=1;align=center;verticalAlign=middle;whiteSpace=wrap;rounded=0;fontSize=16;fontStyle=1" parent="1" vertex="1">
          <mxGeometry x="396.89" y="80" width="125" height="30" as="geometry" />
        </mxCell>
        <mxCell id="v1Tnr26gygapmUk2C5af-12" value="产品整体方案设计" style="text;html=1;align=center;verticalAlign=middle;whiteSpace=wrap;rounded=0;fontSize=16;fontStyle=1" parent="1" vertex="1">
          <mxGeometry x="240" y="160" width="170" height="30" as="geometry" />
        </mxCell>
        <mxCell id="v1Tnr26gygapmUk2C5af-13" value="产品细节方案设计" style="text;html=1;align=center;verticalAlign=middle;whiteSpace=wrap;rounded=0;fontSize=16;fontStyle=1" parent="1" vertex="1">
          <mxGeometry x="530" y="160" width="170" height="30" as="geometry" />
        </mxCell>
        <mxCell id="v1Tnr26gygapmUk2C5af-14" value="" style="strokeWidth=2;html=1;shape=mxgraph.flowchart.annotation_2;align=left;labelPosition=right;pointerEvents=1;rotation=90;" parent="1" vertex="1">
          <mxGeometry x="129" y="193" width="32.01" height="48" as="geometry" />
        </mxCell>
        <mxCell id="v1Tnr26gygapmUk2C5af-15" value="梳理业务现状" style="rounded=1;whiteSpace=wrap;html=1;fontSize=16;" parent="1" vertex="1">
          <mxGeometry x="108" y="240" width="30" height="160" as="geometry" />
        </mxCell>
        <mxCell id="v1Tnr26gygapmUk2C5af-16" value="总结业务问题" style="rounded=1;whiteSpace=wrap;html=1;fontSize=16;" parent="1" vertex="1">
          <mxGeometry x="150" y="240" width="30" height="160" as="geometry" />
        </mxCell>
        <mxCell id="v1Tnr26gygapmUk2C5af-18" value="" style="strokeWidth=2;html=1;shape=mxgraph.flowchart.annotation_2;align=left;labelPosition=right;pointerEvents=1;rotation=90;" parent="1" vertex="1">
          <mxGeometry x="132" y="112.5" width="32.01" height="45" as="geometry" />
        </mxCell>
        <mxCell id="v1Tnr26gygapmUk2C5af-19" value="" style="strokeWidth=2;html=1;shape=mxgraph.flowchart.annotation_2;align=left;labelPosition=right;pointerEvents=1;rotation=90;" parent="1" vertex="1">
          <mxGeometry x="443.38" y="-61.25" width="32.01" height="392.5" as="geometry" />
        </mxCell>
        <mxCell id="v1Tnr26gygapmUk2C5af-20" value="" style="strokeWidth=2;html=1;shape=mxgraph.flowchart.annotation_2;align=left;labelPosition=right;pointerEvents=1;rotation=90;" parent="1" vertex="1">
          <mxGeometry x="297.88" y="127.88" width="32.01" height="178.25" as="geometry" />
        </mxCell>
        <mxCell id="v1Tnr26gygapmUk2C5af-22" value="核心流程" style="rounded=1;whiteSpace=wrap;html=1;fontSize=16;" parent="1" vertex="1">
          <mxGeometry x="219" y="240" width="30" height="160" as="geometry" />
        </mxCell>
        <mxCell id="v1Tnr26gygapmUk2C5af-23" value="产品定位" style="rounded=1;whiteSpace=wrap;html=1;fontSize=16;" parent="1" vertex="1">
          <mxGeometry x="260" y="240" width="30" height="160" as="geometry" />
        </mxCell>
        <mxCell id="v1Tnr26gygapmUk2C5af-24" value="应用架构" style="rounded=1;whiteSpace=wrap;html=1;fontSize=16;" parent="1" vertex="1">
          <mxGeometry x="300" y="240" width="30" height="160" as="geometry" />
        </mxCell>
        <mxCell id="v1Tnr26gygapmUk2C5af-25" value="功能模块" style="rounded=1;whiteSpace=wrap;html=1;fontSize=16;" parent="1" vertex="1">
          <mxGeometry x="340" y="240" width="30" height="160" as="geometry" />
        </mxCell>
        <mxCell id="v1Tnr26gygapmUk2C5af-26" value="演进蓝图" style="rounded=1;whiteSpace=wrap;html=1;fontSize=16;" parent="1" vertex="1">
          <mxGeometry x="380" y="240" width="30" height="160" as="geometry" />
        </mxCell>
        <mxCell id="v1Tnr26gygapmUk2C5af-27" value="" style="strokeWidth=2;html=1;shape=mxgraph.flowchart.annotation_2;align=left;labelPosition=right;pointerEvents=1;rotation=-90;" parent="1" vertex="1">
          <mxGeometry x="129" y="400" width="32.01" height="48" as="geometry" />
        </mxCell>
        <mxCell id="v1Tnr26gygapmUk2C5af-28" value="" style="strokeWidth=2;html=1;shape=mxgraph.flowchart.annotation_2;align=left;labelPosition=right;pointerEvents=1;rotation=-90;" parent="1" vertex="1">
          <mxGeometry x="298.5" y="341.5" width="32.01" height="165" as="geometry" />
        </mxCell>
        <mxCell id="v1Tnr26gygapmUk2C5af-29" value="" style="strokeWidth=2;html=1;shape=mxgraph.flowchart.annotation_2;align=left;labelPosition=right;pointerEvents=1;rotation=90;" parent="1" vertex="1">
          <mxGeometry x="583.06" y="100.94" width="32.01" height="232.12" as="geometry" />
        </mxCell>
        <mxCell id="v1Tnr26gygapmUk2C5af-30" value="数据建模" style="rounded=1;whiteSpace=wrap;html=1;fontSize=16;" parent="1" vertex="1">
          <mxGeometry x="460" y="241" width="30" height="160" as="geometry" />
        </mxCell>
        <mxCell id="v1Tnr26gygapmUk2C5af-31" value="流程角色" style="rounded=1;whiteSpace=wrap;html=1;fontSize=16;" parent="1" vertex="1">
          <mxGeometry x="509.14" y="240" width="30" height="160" as="geometry" />
        </mxCell>
        <mxCell id="v1Tnr26gygapmUk2C5af-32" value="界面报表" style="rounded=1;whiteSpace=wrap;html=1;fontSize=16;" parent="1" vertex="1">
          <mxGeometry x="553.51" y="240" width="30" height="160" as="geometry" />
        </mxCell>
        <mxCell id="v1Tnr26gygapmUk2C5af-33" value="数据埋点" style="rounded=1;whiteSpace=wrap;html=1;fontSize=16;" parent="1" vertex="1">
          <mxGeometry x="600" y="241" width="30" height="160" as="geometry" />
        </mxCell>
        <mxCell id="v1Tnr26gygapmUk2C5af-34" value="权限管理" style="rounded=1;whiteSpace=wrap;html=1;fontSize=16;" parent="1" vertex="1">
          <mxGeometry x="650" y="240" width="30" height="160" as="geometry" />
        </mxCell>
        <mxCell id="v1Tnr26gygapmUk2C5af-35" value="文档编号" style="rounded=1;whiteSpace=wrap;html=1;fontSize=16;" parent="1" vertex="1">
          <mxGeometry x="700" y="240" width="30" height="160" as="geometry" />
        </mxCell>
        <mxCell id="dmXPy57i9Wh9vm7Y5LQy-1" value="" style="strokeWidth=2;html=1;shape=mxgraph.flowchart.annotation_2;align=left;labelPosition=right;pointerEvents=1;rotation=90;" vertex="1" parent="1">
          <mxGeometry x="771.57" y="189.57" width="32.01" height="51.25" as="geometry" />
        </mxCell>
        <mxCell id="dmXPy57i9Wh9vm7Y5LQy-2" value="技术方案" style="rounded=1;whiteSpace=wrap;html=1;fontSize=16;" vertex="1" parent="1">
          <mxGeometry x="773.58" y="240" width="30" height="160" as="geometry" />
        </mxCell>
        <mxCell id="dmXPy57i9Wh9vm7Y5LQy-4" value="" style="strokeWidth=2;html=1;shape=mxgraph.flowchart.annotation_2;align=left;labelPosition=right;pointerEvents=1;rotation=90;" vertex="1" parent="1">
          <mxGeometry x="840" y="189.57" width="32.01" height="51.25" as="geometry" />
        </mxCell>
        <mxCell id="dmXPy57i9Wh9vm7Y5LQy-5" value="项目管理与实践" style="rounded=1;whiteSpace=wrap;html=1;fontSize=16;" vertex="1" parent="1">
          <mxGeometry x="842.01" y="240" width="30" height="160" as="geometry" />
        </mxCell>
        <mxCell id="dmXPy57i9Wh9vm7Y5LQy-6" value="" style="strokeWidth=2;html=1;shape=mxgraph.flowchart.annotation_2;align=left;labelPosition=right;pointerEvents=1;rotation=90;" vertex="1" parent="1">
          <mxGeometry x="932.9899999999999" y="182.39" width="32.01" height="65.6" as="geometry" />
        </mxCell>
        <mxCell id="dmXPy57i9Wh9vm7Y5LQy-7" value="运营管理" style="rounded=1;whiteSpace=wrap;html=1;fontSize=16;" vertex="1" parent="1">
          <mxGeometry x="910" y="240" width="30" height="160" as="geometry" />
        </mxCell>
        <mxCell id="dmXPy57i9Wh9vm7Y5LQy-8" value="迭代优化" style="rounded=1;whiteSpace=wrap;html=1;fontSize=16;" vertex="1" parent="1">
          <mxGeometry x="960" y="240" width="30" height="160" as="geometry" />
        </mxCell>
        <mxCell id="dmXPy57i9Wh9vm7Y5LQy-9" value="" style="strokeWidth=2;html=1;shape=mxgraph.flowchart.annotation_2;align=left;labelPosition=right;pointerEvents=1;rotation=-90;" vertex="1" parent="1">
          <mxGeometry x="579.9999999999999" y="307.94" width="32.01" height="232.12" as="geometry" />
        </mxCell>
        <mxCell id="dmXPy57i9Wh9vm7Y5LQy-10" value="" style="strokeWidth=2;html=1;shape=mxgraph.flowchart.annotation_2;align=left;labelPosition=right;pointerEvents=1;rotation=-90;" vertex="1" parent="1">
          <mxGeometry x="772.57" y="396.75" width="32.01" height="51.25" as="geometry" />
        </mxCell>
        <mxCell id="dmXPy57i9Wh9vm7Y5LQy-11" value="" style="strokeWidth=2;html=1;shape=mxgraph.flowchart.annotation_2;align=left;labelPosition=right;pointerEvents=1;rotation=-90;" vertex="1" parent="1">
          <mxGeometry x="841" y="396.75" width="32.01" height="51.25" as="geometry" />
        </mxCell>
        <mxCell id="dmXPy57i9Wh9vm7Y5LQy-12" value="" style="strokeWidth=2;html=1;shape=mxgraph.flowchart.annotation_2;align=left;labelPosition=right;pointerEvents=1;rotation=-90;" vertex="1" parent="1">
          <mxGeometry x="932.9999999999999" y="389.58" width="32.01" height="65.6" as="geometry" />
        </mxCell>
        <mxCell id="dmXPy57i9Wh9vm7Y5LQy-13" value="" style="strokeWidth=2;html=1;shape=mxgraph.flowchart.annotation_2;align=left;labelPosition=right;pointerEvents=1;rotation=90;" vertex="1" parent="1">
          <mxGeometry x="858.02" y="28.01" width="32.01" height="213.97" as="geometry" />
        </mxCell>
        <mxCell id="dmXPy57i9Wh9vm7Y5LQy-14" value="执行并优化解决方案" style="text;html=1;align=center;verticalAlign=middle;whiteSpace=wrap;rounded=0;fontSize=16;fontStyle=1" vertex="1" parent="1">
          <mxGeometry x="791.53" y="80" width="148.47" height="30" as="geometry" />
        </mxCell>
        <mxCell id="dmXPy57i9Wh9vm7Y5LQy-16" value="技术方案&amp;nbsp; &amp;nbsp;/&amp;nbsp; &amp;nbsp;实施&amp;nbsp; &amp;nbsp;/&amp;nbsp; &amp;nbsp;运营迭代" style="text;html=1;align=center;verticalAlign=middle;whiteSpace=wrap;rounded=0;fontSize=16;fontStyle=1" vertex="1" parent="1">
          <mxGeometry x="755.01" y="160" width="234.99" height="30" as="geometry" />
        </mxCell>
        <mxCell id="dmXPy57i9Wh9vm7Y5LQy-17" value="&lt;ul&gt;&lt;li&gt;一线业务&lt;/li&gt;&lt;/ul&gt;" style="text;html=1;align=left;verticalAlign=middle;whiteSpace=wrap;rounded=0;" vertex="1" parent="1">
          <mxGeometry x="82.01" y="450" width="105.99" height="30" as="geometry" />
        </mxCell>
        <mxCell id="dmXPy57i9Wh9vm7Y5LQy-18" value="&lt;ul&gt;&lt;li&gt;一线主管&lt;/li&gt;&lt;/ul&gt;" style="text;html=1;align=left;verticalAlign=middle;whiteSpace=wrap;rounded=0;" vertex="1" parent="1">
          <mxGeometry x="82.01" y="480" width="105.99" height="30" as="geometry" />
        </mxCell>
        <mxCell id="dmXPy57i9Wh9vm7Y5LQy-19" value="&lt;ul&gt;&lt;li&gt;业务负责人&lt;/li&gt;&lt;/ul&gt;" style="text;html=1;align=left;verticalAlign=middle;whiteSpace=wrap;rounded=0;" vertex="1" parent="1">
          <mxGeometry x="82.01" y="510" width="105.99" height="30" as="geometry" />
        </mxCell>
        <mxCell id="dmXPy57i9Wh9vm7Y5LQy-20" value="&lt;ul&gt;&lt;li&gt;PM&lt;/li&gt;&lt;/ul&gt;" style="text;html=1;align=left;verticalAlign=middle;whiteSpace=wrap;rounded=0;" vertex="1" parent="1">
          <mxGeometry x="82.01" y="540" width="105.99" height="30" as="geometry" />
        </mxCell>
        <mxCell id="dmXPy57i9Wh9vm7Y5LQy-21" value="&lt;ul&gt;&lt;li&gt;技术负责人&lt;/li&gt;&lt;/ul&gt;" style="text;html=1;align=left;verticalAlign=middle;whiteSpace=wrap;rounded=0;" vertex="1" parent="1">
          <mxGeometry x="82.01" y="570" width="105.99" height="30" as="geometry" />
        </mxCell>
        <mxCell id="dmXPy57i9Wh9vm7Y5LQy-22" value="&lt;ul&gt;&lt;li&gt;PM&lt;/li&gt;&lt;/ul&gt;" style="text;html=1;align=left;verticalAlign=middle;whiteSpace=wrap;rounded=0;" vertex="1" parent="1">
          <mxGeometry x="240" y="450" width="105.99" height="30" as="geometry" />
        </mxCell>
        <mxCell id="dmXPy57i9Wh9vm7Y5LQy-23" value="&lt;ul&gt;&lt;li&gt;架构师&lt;/li&gt;&lt;/ul&gt;" style="text;html=1;align=left;verticalAlign=middle;whiteSpace=wrap;rounded=0;" vertex="1" parent="1">
          <mxGeometry x="240" y="480" width="105.99" height="30" as="geometry" />
        </mxCell>
        <mxCell id="dmXPy57i9Wh9vm7Y5LQy-24" value="&lt;ul&gt;&lt;li&gt;技术负责人&lt;/li&gt;&lt;/ul&gt;" style="text;html=1;align=left;verticalAlign=middle;whiteSpace=wrap;rounded=0;" vertex="1" parent="1">
          <mxGeometry x="240" y="510" width="105.99" height="30" as="geometry" />
        </mxCell>
        <mxCell id="dmXPy57i9Wh9vm7Y5LQy-25" value="&lt;ul&gt;&lt;li&gt;业务负责人&lt;/li&gt;&lt;/ul&gt;" style="text;html=1;align=left;verticalAlign=middle;whiteSpace=wrap;rounded=0;" vertex="1" parent="1">
          <mxGeometry x="240" y="540" width="105.99" height="30" as="geometry" />
        </mxCell>
        <mxCell id="dmXPy57i9Wh9vm7Y5LQy-26" value="&lt;ul&gt;&lt;li&gt;PM&lt;/li&gt;&lt;/ul&gt;" style="text;html=1;align=left;verticalAlign=middle;whiteSpace=wrap;rounded=0;" vertex="1" parent="1">
          <mxGeometry x="539.14" y="448" width="105.99" height="30" as="geometry" />
        </mxCell>
        <mxCell id="dmXPy57i9Wh9vm7Y5LQy-27" value="&lt;ul&gt;&lt;li&gt;技术负责人&lt;/li&gt;&lt;/ul&gt;" style="text;html=1;align=left;verticalAlign=middle;whiteSpace=wrap;rounded=0;" vertex="1" parent="1">
          <mxGeometry x="539.14" y="478" width="105.99" height="30" as="geometry" />
        </mxCell>
        <mxCell id="dmXPy57i9Wh9vm7Y5LQy-28" value="&lt;ul&gt;&lt;li&gt;UE&lt;/li&gt;&lt;/ul&gt;" style="text;html=1;align=left;verticalAlign=middle;whiteSpace=wrap;rounded=0;" vertex="1" parent="1">
          <mxGeometry x="539.14" y="508" width="105.99" height="30" as="geometry" />
        </mxCell>
        <mxCell id="dmXPy57i9Wh9vm7Y5LQy-29" value="&lt;ul&gt;&lt;li&gt;业务负责人&lt;/li&gt;&lt;/ul&gt;" style="text;html=1;align=left;verticalAlign=middle;whiteSpace=wrap;rounded=0;" vertex="1" parent="1">
          <mxGeometry x="539.14" y="538" width="105.99" height="30" as="geometry" />
        </mxCell>
        <mxCell id="dmXPy57i9Wh9vm7Y5LQy-30" value="&lt;ul&gt;&lt;li&gt;业务用户&lt;/li&gt;&lt;/ul&gt;" style="text;html=1;align=left;verticalAlign=middle;whiteSpace=wrap;rounded=0;" vertex="1" parent="1">
          <mxGeometry x="539.14" y="568" width="105.99" height="30" as="geometry" />
        </mxCell>
        <mxCell id="dmXPy57i9Wh9vm7Y5LQy-31" value="&lt;ul&gt;&lt;li&gt;架构师&lt;/li&gt;&lt;/ul&gt;" style="text;html=1;align=left;verticalAlign=middle;whiteSpace=wrap;rounded=0;" vertex="1" parent="1">
          <mxGeometry x="710" y="448" width="105.99" height="30" as="geometry" />
        </mxCell>
        <mxCell id="dmXPy57i9Wh9vm7Y5LQy-32" value="&lt;ul&gt;&lt;li&gt;技术负责人&lt;/li&gt;&lt;/ul&gt;" style="text;html=1;align=left;verticalAlign=middle;whiteSpace=wrap;rounded=0;" vertex="1" parent="1">
          <mxGeometry x="710" y="478" width="105.99" height="30" as="geometry" />
        </mxCell>
        <mxCell id="dmXPy57i9Wh9vm7Y5LQy-33" value="&lt;ul&gt;&lt;li&gt;RD/QA/PMO&lt;/li&gt;&lt;/ul&gt;" style="text;html=1;align=left;verticalAlign=middle;whiteSpace=wrap;rounded=0;" vertex="1" parent="1">
          <mxGeometry x="710" y="508" width="105.99" height="30" as="geometry" />
        </mxCell>
        <mxCell id="dmXPy57i9Wh9vm7Y5LQy-34" value="&lt;ul&gt;&lt;li&gt;PM&lt;/li&gt;&lt;/ul&gt;" style="text;html=1;align=left;verticalAlign=middle;whiteSpace=wrap;rounded=0;" vertex="1" parent="1">
          <mxGeometry x="710" y="538" width="105.99" height="30" as="geometry" />
        </mxCell>
        <mxCell id="dmXPy57i9Wh9vm7Y5LQy-35" value="&lt;ul&gt;&lt;li&gt;PM&lt;/li&gt;&lt;/ul&gt;" style="text;html=1;align=left;verticalAlign=middle;whiteSpace=wrap;rounded=0;" vertex="1" parent="1">
          <mxGeometry x="827" y="448" width="105.99" height="30" as="geometry" />
        </mxCell>
        <mxCell id="dmXPy57i9Wh9vm7Y5LQy-36" value="&lt;ul&gt;&lt;li&gt;技术负责人&lt;/li&gt;&lt;/ul&gt;" style="text;html=1;align=left;verticalAlign=middle;whiteSpace=wrap;rounded=0;" vertex="1" parent="1">
          <mxGeometry x="827" y="478" width="105.99" height="30" as="geometry" />
        </mxCell>
        <mxCell id="dmXPy57i9Wh9vm7Y5LQy-37" value="&lt;ul&gt;&lt;li&gt;RD/QA/PMO&lt;/li&gt;&lt;/ul&gt;" style="text;html=1;align=left;verticalAlign=middle;whiteSpace=wrap;rounded=0;" vertex="1" parent="1">
          <mxGeometry x="827" y="508" width="105.99" height="30" as="geometry" />
        </mxCell>
        <mxCell id="dmXPy57i9Wh9vm7Y5LQy-38" value="&lt;ul&gt;&lt;li&gt;业务用户&lt;/li&gt;&lt;/ul&gt;" style="text;html=1;align=left;verticalAlign=middle;whiteSpace=wrap;rounded=0;" vertex="1" parent="1">
          <mxGeometry x="827" y="538" width="105.99" height="30" as="geometry" />
        </mxCell>
        <mxCell id="dmXPy57i9Wh9vm7Y5LQy-39" value="&lt;ul&gt;&lt;li&gt;PM&lt;/li&gt;&lt;/ul&gt;" style="text;html=1;align=left;verticalAlign=middle;whiteSpace=wrap;rounded=0;" vertex="1" parent="1">
          <mxGeometry x="932.99" y="446.5" width="105.99" height="30" as="geometry" />
        </mxCell>
        <mxCell id="dmXPy57i9Wh9vm7Y5LQy-40" value="&lt;ul&gt;&lt;li&gt;业务用户&lt;/li&gt;&lt;/ul&gt;" style="text;html=1;align=left;verticalAlign=middle;whiteSpace=wrap;rounded=0;" vertex="1" parent="1">
          <mxGeometry x="932.99" y="476.5" width="105.99" height="30" as="geometry" />
        </mxCell>
      </root>
    </mxGraphModel>
  </diagram>
  <diagram id="FevBL7CnXmgxiMmzXY1W" name="业务调研示例-手工模式">
    <mxGraphModel dx="993" dy="1818" grid="1" gridSize="10" guides="1" tooltips="1" connect="1" arrows="1" fold="1" page="1" pageScale="1" pageWidth="827" pageHeight="1169" math="0" shadow="0">
      <root>
        <mxCell id="0" />
        <mxCell id="1" parent="0" />
        <mxCell id="PPz21u3cp9W0feoR--M8-1" value="&lt;span style=&quot;color: rgb(25, 27, 31); font-family: -apple-system, BlinkMacSystemFont, &amp;quot;Helvetica Neue&amp;quot;, &amp;quot;PingFang SC&amp;quot;, &amp;quot;Microsoft YaHei&amp;quot;, &amp;quot;Source Han Sans SC&amp;quot;, &amp;quot;Noto Sans CJK SC&amp;quot;, &amp;quot;WenQuanYi Micro Hei&amp;quot;, sans-serif; background-color: rgb(255, 255, 255);&quot;&gt;&lt;font style=&quot;font-size: 12px;&quot;&gt;B端产品需要满足企业或组织的业务需求，不能凭空想象。&lt;/font&gt;&lt;/span&gt;&lt;div&gt;&lt;p style=&quot;margin: 1.4em 0px; color: rgb(25, 27, 31); font-family: -apple-system, BlinkMacSystemFont, &amp;quot;Helvetica Neue&amp;quot;, &amp;quot;PingFang SC&amp;quot;, &amp;quot;Microsoft YaHei&amp;quot;, &amp;quot;Source Han Sans SC&amp;quot;, &amp;quot;Noto Sans CJK SC&amp;quot;, &amp;quot;WenQuanYi Micro Hei&amp;quot;, sans-serif; background-color: rgb(255, 255, 255);&quot; data-pid=&quot;-uML7lsG&quot;&gt;&lt;font style=&quot;font-size: 12px;&quot;&gt;业务调研有两个重要目的，一是梳理业务现状，二是总结业务问题。&lt;/font&gt;&lt;/p&gt;&lt;p style=&quot;margin: 1.4em 0px; color: rgb(25, 27, 31); font-family: -apple-system, BlinkMacSystemFont, &amp;quot;Helvetica Neue&amp;quot;, &amp;quot;PingFang SC&amp;quot;, &amp;quot;Microsoft YaHei&amp;quot;, &amp;quot;Source Han Sans SC&amp;quot;, &amp;quot;Noto Sans CJK SC&amp;quot;, &amp;quot;WenQuanYi Micro Hei&amp;quot;, sans-serif; background-color: rgb(255, 255, 255);&quot; data-pid=&quot;KCsMScIt&quot;&gt;&lt;font style=&quot;font-size: 12px;&quot;&gt;调研对象一般包括业务高管、业务经理、一线业务人员、合作伙伴高管、合作伙伴经理、合作伙伴一线人员等。从高级别人员开始访谈工作，按照从概览到局部、从全局到细节的顺序研究业务，更容易把握整体调研工作的脉络和节奏。&lt;/font&gt;&lt;/p&gt;&lt;p style=&quot;margin: 1.4em 0px; color: rgb(25, 27, 31); font-family: -apple-system, BlinkMacSystemFont, &amp;quot;Helvetica Neue&amp;quot;, &amp;quot;PingFang SC&amp;quot;, &amp;quot;Microsoft YaHei&amp;quot;, &amp;quot;Source Han Sans SC&amp;quot;, &amp;quot;Noto Sans CJK SC&amp;quot;, &amp;quot;WenQuanYi Micro Hei&amp;quot;, sans-serif; background-color: rgb(255, 255, 255);&quot; data-pid=&quot;lepemMmQ&quot;&gt;&lt;font style=&quot;font-size: 12px;&quot;&gt;针对高管，可以了解业务战略定位、战略目标等信息；针对经理或负责人，可以了解业务的管理思路、经营思路等信息；对于一线业务人员，可以获取作业过程、操作细节等信息。&lt;/font&gt;&lt;/p&gt;&lt;p style=&quot;margin: 1.4em 0px; color: rgb(25, 27, 31); font-family: -apple-system, BlinkMacSystemFont, &amp;quot;Helvetica Neue&amp;quot;, &amp;quot;PingFang SC&amp;quot;, &amp;quot;Microsoft YaHei&amp;quot;, &amp;quot;Source Han Sans SC&amp;quot;, &amp;quot;Noto Sans CJK SC&amp;quot;, &amp;quot;WenQuanYi Micro Hei&amp;quot;, sans-serif; background-color: rgb(255, 255, 255);&quot; data-pid=&quot;tcrMrepc&quot;&gt;&lt;font style=&quot;font-size: 12px;&quot;&gt;经过全面访谈的调研，可以绘制出目前业务的流程，总结出业务问题，并思考解决方案及优先级（将业务主流程优化确定为高优诉求，将小众功能、风控功能列为低优诉求）。&lt;/font&gt;&lt;/p&gt;&lt;/div&gt;" style="text;html=1;align=left;verticalAlign=middle;whiteSpace=wrap;rounded=0;" vertex="1" parent="1">
          <mxGeometry x="40" y="-120" width="730" height="210" as="geometry" />
        </mxCell>
        <mxCell id="PPz21u3cp9W0feoR--M8-2" value="&lt;font style=&quot;font-size: 16px;&quot;&gt;《分销业务流程图 - 手工模式》&amp;nbsp;&lt;/font&gt;" style="rounded=0;whiteSpace=wrap;html=1;align=left;fontSize=16;" vertex="1" parent="1">
          <mxGeometry x="40" y="130" width="680" height="40" as="geometry" />
        </mxCell>
        <mxCell id="PPz21u3cp9W0feoR--M8-3" value="&lt;font style=&quot;font-size: 16px;&quot;&gt;线下手工处理&lt;/font&gt;" style="rounded=0;whiteSpace=wrap;html=1;fontSize=16;textDirection=vertical-lr;" vertex="1" parent="1">
          <mxGeometry x="40" y="170" width="40" height="270" as="geometry" />
        </mxCell>
        <mxCell id="PPz21u3cp9W0feoR--M8-4" value="&lt;font style=&quot;font-size: 16px;&quot;&gt;销售&lt;/font&gt;" style="rounded=0;whiteSpace=wrap;html=1;fontSize=16;" vertex="1" parent="1">
          <mxGeometry x="80" y="170" width="160" height="30" as="geometry" />
        </mxCell>
        <mxCell id="PPz21u3cp9W0feoR--M8-6" value="客户" style="rounded=0;whiteSpace=wrap;html=1;fontSize=16;" vertex="1" parent="1">
          <mxGeometry x="240" y="170" width="160" height="30" as="geometry" />
        </mxCell>
        <mxCell id="PPz21u3cp9W0feoR--M8-7" value="&lt;font style=&quot;font-size: 16px;&quot;&gt;运营&lt;/font&gt;" style="rounded=0;whiteSpace=wrap;html=1;fontSize=16;" vertex="1" parent="1">
          <mxGeometry x="400" y="170" width="160" height="30" as="geometry" />
        </mxCell>
        <mxCell id="PPz21u3cp9W0feoR--M8-8" value="&lt;font style=&quot;font-size: 16px;&quot;&gt;仓配&lt;/font&gt;" style="rounded=0;whiteSpace=wrap;html=1;fontSize=16;" vertex="1" parent="1">
          <mxGeometry x="560" y="170" width="160" height="30" as="geometry" />
        </mxCell>
        <mxCell id="PPz21u3cp9W0feoR--M8-16" style="edgeStyle=orthogonalEdgeStyle;rounded=0;orthogonalLoop=1;jettySize=auto;html=1;entryX=0;entryY=0.5;entryDx=0;entryDy=0;" edge="1" parent="1" source="PPz21u3cp9W0feoR--M8-9" target="PPz21u3cp9W0feoR--M8-11">
          <mxGeometry relative="1" as="geometry" />
        </mxCell>
        <mxCell id="PPz21u3cp9W0feoR--M8-9" value="签订合同&lt;div&gt;提交审核&lt;/div&gt;" style="shape=hexagon;perimeter=hexagonPerimeter2;whiteSpace=wrap;html=1;fixedSize=1;fontSize=16;" vertex="1" parent="1">
          <mxGeometry x="100" y="220" width="110" height="60" as="geometry" />
        </mxCell>
        <mxCell id="PPz21u3cp9W0feoR--M8-18" style="edgeStyle=orthogonalEdgeStyle;rounded=0;orthogonalLoop=1;jettySize=auto;html=1;exitX=0.5;exitY=1;exitDx=0;exitDy=0;entryX=1;entryY=0.5;entryDx=0;entryDy=0;" edge="1" parent="1" source="PPz21u3cp9W0feoR--M8-11" target="PPz21u3cp9W0feoR--M8-17">
          <mxGeometry relative="1" as="geometry" />
        </mxCell>
        <mxCell id="PPz21u3cp9W0feoR--M8-11" value="审核" style="rounded=0;whiteSpace=wrap;html=1;fontSize=16;" vertex="1" parent="1">
          <mxGeometry x="430" y="220" width="100" height="60" as="geometry" />
        </mxCell>
        <mxCell id="PPz21u3cp9W0feoR--M8-12" value="" style="endArrow=none;html=1;rounded=0;entryX=0;entryY=1;entryDx=0;entryDy=0;" edge="1" parent="1" target="PPz21u3cp9W0feoR--M8-6">
          <mxGeometry width="50" height="50" relative="1" as="geometry">
            <mxPoint x="240" y="720" as="sourcePoint" />
            <mxPoint x="290" y="250" as="targetPoint" />
          </mxGeometry>
        </mxCell>
        <mxCell id="PPz21u3cp9W0feoR--M8-13" value="" style="endArrow=none;html=1;rounded=0;entryX=0;entryY=1;entryDx=0;entryDy=0;" edge="1" parent="1">
          <mxGeometry width="50" height="50" relative="1" as="geometry">
            <mxPoint x="400" y="720" as="sourcePoint" />
            <mxPoint x="400" y="200" as="targetPoint" />
          </mxGeometry>
        </mxCell>
        <mxCell id="PPz21u3cp9W0feoR--M8-14" value="" style="endArrow=none;html=1;rounded=0;entryX=0;entryY=1;entryDx=0;entryDy=0;" edge="1" parent="1">
          <mxGeometry width="50" height="50" relative="1" as="geometry">
            <mxPoint x="560" y="720" as="sourcePoint" />
            <mxPoint x="560" y="200" as="targetPoint" />
          </mxGeometry>
        </mxCell>
        <mxCell id="PPz21u3cp9W0feoR--M8-15" value="" style="endArrow=none;html=1;rounded=0;entryX=0;entryY=1;entryDx=0;entryDy=0;" edge="1" parent="1">
          <mxGeometry width="50" height="50" relative="1" as="geometry">
            <mxPoint x="720" y="720" as="sourcePoint" />
            <mxPoint x="720" y="200" as="targetPoint" />
          </mxGeometry>
        </mxCell>
        <mxCell id="PPz21u3cp9W0feoR--M8-59" style="edgeStyle=orthogonalEdgeStyle;rounded=0;orthogonalLoop=1;jettySize=auto;html=1;entryX=0;entryY=0.5;entryDx=0;entryDy=0;exitX=0.5;exitY=1;exitDx=0;exitDy=0;" edge="1" parent="1" source="PPz21u3cp9W0feoR--M8-17" target="PPz21u3cp9W0feoR--M8-19">
          <mxGeometry relative="1" as="geometry" />
        </mxCell>
        <mxCell id="PPz21u3cp9W0feoR--M8-17" value="提交订单&lt;div&gt;(电话、邮件)&lt;/div&gt;" style="rounded=0;whiteSpace=wrap;html=1;fontSize=16;" vertex="1" parent="1">
          <mxGeometry x="270" y="280" width="100" height="60" as="geometry" />
        </mxCell>
        <mxCell id="PPz21u3cp9W0feoR--M8-60" style="edgeStyle=orthogonalEdgeStyle;rounded=0;orthogonalLoop=1;jettySize=auto;html=1;entryX=0.5;entryY=0;entryDx=0;entryDy=0;" edge="1" parent="1" source="PPz21u3cp9W0feoR--M8-19" target="PPz21u3cp9W0feoR--M8-22">
          <mxGeometry relative="1" as="geometry" />
        </mxCell>
        <mxCell id="PPz21u3cp9W0feoR--M8-19" value="核实账期&lt;div&gt;计算价格&lt;/div&gt;" style="rounded=0;whiteSpace=wrap;html=1;fontSize=16;" vertex="1" parent="1">
          <mxGeometry x="430" y="340" width="100" height="60" as="geometry" />
        </mxCell>
        <mxCell id="PPz21u3cp9W0feoR--M8-20" value="" style="endArrow=none;dashed=1;html=1;rounded=0;exitX=1;exitY=1;exitDx=0;exitDy=0;" edge="1" parent="1" source="PPz21u3cp9W0feoR--M8-3">
          <mxGeometry width="50" height="50" relative="1" as="geometry">
            <mxPoint x="380" y="430" as="sourcePoint" />
            <mxPoint x="720" y="440" as="targetPoint" />
          </mxGeometry>
        </mxCell>
        <mxCell id="PPz21u3cp9W0feoR--M8-21" value="&lt;font style=&quot;font-size: 16px;&quot;&gt;订单系统&lt;/font&gt;" style="rounded=0;whiteSpace=wrap;html=1;fontSize=16;textDirection=vertical-lr;" vertex="1" parent="1">
          <mxGeometry x="40" y="440" width="40" height="120" as="geometry" />
        </mxCell>
        <mxCell id="PPz21u3cp9W0feoR--M8-24" style="edgeStyle=orthogonalEdgeStyle;rounded=0;orthogonalLoop=1;jettySize=auto;html=1;entryX=0;entryY=0.5;entryDx=0;entryDy=0;exitX=0.5;exitY=1;exitDx=0;exitDy=0;" edge="1" parent="1" source="PPz21u3cp9W0feoR--M8-22" target="PPz21u3cp9W0feoR--M8-23">
          <mxGeometry relative="1" as="geometry" />
        </mxCell>
        <mxCell id="PPz21u3cp9W0feoR--M8-22" value="提交订单" style="rounded=0;whiteSpace=wrap;html=1;fontSize=16;" vertex="1" parent="1">
          <mxGeometry x="430" y="460" width="100" height="60" as="geometry" />
        </mxCell>
        <mxCell id="PPz21u3cp9W0feoR--M8-23" value="生产配送" style="rounded=1;whiteSpace=wrap;html=1;fontSize=16;arcSize=50;" vertex="1" parent="1">
          <mxGeometry x="580" y="570" width="120" height="60" as="geometry" />
        </mxCell>
        <mxCell id="PPz21u3cp9W0feoR--M8-25" value="&lt;font style=&quot;font-size: 16px;&quot;&gt;其他系统&lt;/font&gt;" style="rounded=0;whiteSpace=wrap;html=1;fontSize=16;textDirection=vertical-lr;" vertex="1" parent="1">
          <mxGeometry x="40" y="560" width="40" height="120" as="geometry" />
        </mxCell>
        <mxCell id="PPz21u3cp9W0feoR--M8-26" value="" style="endArrow=none;dashed=1;html=1;rounded=0;exitX=1;exitY=1;exitDx=0;exitDy=0;" edge="1" parent="1">
          <mxGeometry width="50" height="50" relative="1" as="geometry">
            <mxPoint x="80" y="560" as="sourcePoint" />
            <mxPoint x="720" y="560" as="targetPoint" />
          </mxGeometry>
        </mxCell>
        <mxCell id="PPz21u3cp9W0feoR--M8-27" value="" style="endArrow=none;dashed=1;html=1;rounded=0;exitX=1;exitY=1;exitDx=0;exitDy=0;" edge="1" parent="1">
          <mxGeometry width="50" height="50" relative="1" as="geometry">
            <mxPoint x="80" y="680" as="sourcePoint" />
            <mxPoint x="720" y="680" as="targetPoint" />
          </mxGeometry>
        </mxCell>
        <mxCell id="PPz21u3cp9W0feoR--M8-28" value="" style="endArrow=none;html=1;rounded=0;" edge="1" parent="1">
          <mxGeometry width="50" height="50" relative="1" as="geometry">
            <mxPoint x="40" y="720" as="sourcePoint" />
            <mxPoint x="720" y="720" as="targetPoint" />
          </mxGeometry>
        </mxCell>
        <mxCell id="PPz21u3cp9W0feoR--M8-29" value="" style="endArrow=none;html=1;rounded=0;entryX=0;entryY=1;entryDx=0;entryDy=0;" edge="1" parent="1" target="PPz21u3cp9W0feoR--M8-25">
          <mxGeometry width="50" height="50" relative="1" as="geometry">
            <mxPoint x="40" y="720" as="sourcePoint" />
            <mxPoint x="60" y="730" as="targetPoint" />
          </mxGeometry>
        </mxCell>
        <mxCell id="PPz21u3cp9W0feoR--M8-30" value="" style="endArrow=none;html=1;rounded=0;entryX=0;entryY=1;entryDx=0;entryDy=0;" edge="1" parent="1">
          <mxGeometry width="50" height="50" relative="1" as="geometry">
            <mxPoint x="80" y="720" as="sourcePoint" />
            <mxPoint x="80" y="680" as="targetPoint" />
          </mxGeometry>
        </mxCell>
        <mxCell id="PPz21u3cp9W0feoR--M8-31" value="&lt;font color=&quot;#191b1f&quot; face=&quot;-apple-system, BlinkMacSystemFont, Helvetica Neue, PingFang SC, Microsoft YaHei, Source Han Sans SC, Noto Sans CJK SC, WenQuanYi Micro Hei, sans-serif&quot; style=&quot;font-size: 16px;&quot;&gt;&lt;span style=&quot;background-color: rgb(255, 255, 255); font-size: 16px;&quot;&gt;产品整体方案设计：&lt;/span&gt;&lt;/font&gt;&lt;span style=&quot;color: rgb(25, 27, 31); font-family: -apple-system, BlinkMacSystemFont, &amp;quot;Helvetica Neue&amp;quot;, &amp;quot;PingFang SC&amp;quot;, &amp;quot;Microsoft YaHei&amp;quot;, &amp;quot;Source Han Sans SC&amp;quot;, &amp;quot;Noto Sans CJK SC&amp;quot;, &amp;quot;WenQuanYi Micro Hei&amp;quot;, sans-serif; font-size: 16px; background-color: rgb(255, 255, 255);&quot;&gt;B端产品的整体方案设计需要遵循自顶向下的设计思路，可以依次设计核心业务流程、产品定位、应用架构、功能模块、演进蓝图，从抽象到具体，逐步勾勒出B端产品的轮廓。这些是后续细节设计的指导性方针，是细化设计的基础。&lt;/span&gt;" style="text;html=1;align=left;verticalAlign=middle;whiteSpace=wrap;rounded=0;fontSize=16;" vertex="1" parent="1">
          <mxGeometry x="40" y="760" width="730" height="80" as="geometry" />
        </mxCell>
        <mxCell id="PPz21u3cp9W0feoR--M8-32" value="&lt;font style=&quot;font-size: 16px;&quot;&gt;《分销业务流程图 - 基于分销系统》&amp;nbsp;&lt;/font&gt;" style="rounded=0;whiteSpace=wrap;html=1;align=left;fontSize=16;" vertex="1" parent="1">
          <mxGeometry x="38.75" y="880" width="680" height="40" as="geometry" />
        </mxCell>
        <mxCell id="PPz21u3cp9W0feoR--M8-33" value="&lt;font style=&quot;font-size: 16px;&quot;&gt;线下手工处理&lt;/font&gt;" style="rounded=0;whiteSpace=wrap;html=1;fontSize=16;textDirection=vertical-lr;" vertex="1" parent="1">
          <mxGeometry x="38.75" y="920" width="40" height="160" as="geometry" />
        </mxCell>
        <mxCell id="PPz21u3cp9W0feoR--M8-34" value="&lt;font style=&quot;font-size: 16px;&quot;&gt;销售&lt;/font&gt;" style="rounded=0;whiteSpace=wrap;html=1;fontSize=16;" vertex="1" parent="1">
          <mxGeometry x="78.75" y="920" width="160" height="30" as="geometry" />
        </mxCell>
        <mxCell id="PPz21u3cp9W0feoR--M8-35" value="客户" style="rounded=0;whiteSpace=wrap;html=1;fontSize=16;" vertex="1" parent="1">
          <mxGeometry x="238.75" y="920" width="160" height="30" as="geometry" />
        </mxCell>
        <mxCell id="PPz21u3cp9W0feoR--M8-36" value="&lt;font style=&quot;font-size: 16px;&quot;&gt;运营&lt;/font&gt;" style="rounded=0;whiteSpace=wrap;html=1;fontSize=16;" vertex="1" parent="1">
          <mxGeometry x="398.75" y="920" width="160" height="30" as="geometry" />
        </mxCell>
        <mxCell id="PPz21u3cp9W0feoR--M8-37" value="&lt;font style=&quot;font-size: 16px;&quot;&gt;仓配&lt;/font&gt;" style="rounded=0;whiteSpace=wrap;html=1;fontSize=16;" vertex="1" parent="1">
          <mxGeometry x="558.75" y="920" width="160" height="30" as="geometry" />
        </mxCell>
        <mxCell id="PPz21u3cp9W0feoR--M8-38" style="edgeStyle=orthogonalEdgeStyle;rounded=0;orthogonalLoop=1;jettySize=auto;html=1;entryX=0;entryY=0.5;entryDx=0;entryDy=0;" edge="1" parent="1" source="PPz21u3cp9W0feoR--M8-39" target="PPz21u3cp9W0feoR--M8-41">
          <mxGeometry relative="1" as="geometry" />
        </mxCell>
        <mxCell id="PPz21u3cp9W0feoR--M8-39" value="签订合同&lt;div&gt;提交审核&lt;/div&gt;" style="shape=hexagon;perimeter=hexagonPerimeter2;whiteSpace=wrap;html=1;fixedSize=1;fontSize=16;" vertex="1" parent="1">
          <mxGeometry x="98.75" y="970" width="110" height="60" as="geometry" />
        </mxCell>
        <mxCell id="PPz21u3cp9W0feoR--M8-71" style="edgeStyle=orthogonalEdgeStyle;rounded=0;orthogonalLoop=1;jettySize=auto;html=1;entryX=0.5;entryY=0;entryDx=0;entryDy=0;" edge="1" parent="1" source="PPz21u3cp9W0feoR--M8-41" target="PPz21u3cp9W0feoR--M8-61">
          <mxGeometry relative="1" as="geometry" />
        </mxCell>
        <mxCell id="PPz21u3cp9W0feoR--M8-41" value="审核" style="rounded=0;whiteSpace=wrap;html=1;fontSize=16;" vertex="1" parent="1">
          <mxGeometry x="428.75" y="970" width="100" height="60" as="geometry" />
        </mxCell>
        <mxCell id="PPz21u3cp9W0feoR--M8-42" value="" style="endArrow=none;html=1;rounded=0;entryX=0;entryY=1;entryDx=0;entryDy=0;" edge="1" parent="1" target="PPz21u3cp9W0feoR--M8-35">
          <mxGeometry width="50" height="50" relative="1" as="geometry">
            <mxPoint x="239" y="1558" as="sourcePoint" />
            <mxPoint x="288.75" y="1000" as="targetPoint" />
          </mxGeometry>
        </mxCell>
        <mxCell id="PPz21u3cp9W0feoR--M8-43" value="" style="endArrow=none;html=1;rounded=0;entryX=0;entryY=1;entryDx=0;entryDy=0;" edge="1" parent="1">
          <mxGeometry width="50" height="50" relative="1" as="geometry">
            <mxPoint x="400" y="1558" as="sourcePoint" />
            <mxPoint x="398.75" y="950" as="targetPoint" />
          </mxGeometry>
        </mxCell>
        <mxCell id="PPz21u3cp9W0feoR--M8-44" value="" style="endArrow=none;html=1;rounded=0;entryX=0;entryY=1;entryDx=0;entryDy=0;" edge="1" parent="1">
          <mxGeometry width="50" height="50" relative="1" as="geometry">
            <mxPoint x="559" y="1558" as="sourcePoint" />
            <mxPoint x="558.75" y="950" as="targetPoint" />
          </mxGeometry>
        </mxCell>
        <mxCell id="PPz21u3cp9W0feoR--M8-45" value="" style="endArrow=none;html=1;rounded=0;entryX=0;entryY=1;entryDx=0;entryDy=0;" edge="1" parent="1">
          <mxGeometry width="50" height="50" relative="1" as="geometry">
            <mxPoint x="719" y="1558" as="sourcePoint" />
            <mxPoint x="718.75" y="950" as="targetPoint" />
          </mxGeometry>
        </mxCell>
        <mxCell id="PPz21u3cp9W0feoR--M8-49" value="&lt;font style=&quot;font-size: 16px;&quot;&gt;分销系统&lt;/font&gt;" style="rounded=0;whiteSpace=wrap;html=1;fontSize=16;textDirection=vertical-lr;" vertex="1" parent="1">
          <mxGeometry x="38.75" y="1080" width="40" height="320" as="geometry" />
        </mxCell>
        <mxCell id="PPz21u3cp9W0feoR--M8-68" style="edgeStyle=orthogonalEdgeStyle;rounded=0;orthogonalLoop=1;jettySize=auto;html=1;exitX=0.5;exitY=1;exitDx=0;exitDy=0;entryX=0.5;entryY=0;entryDx=0;entryDy=0;" edge="1" parent="1" source="PPz21u3cp9W0feoR--M8-51" target="PPz21u3cp9W0feoR--M8-65">
          <mxGeometry relative="1" as="geometry" />
        </mxCell>
        <mxCell id="PPz21u3cp9W0feoR--M8-51" value="维护价格系数表" style="rounded=0;whiteSpace=wrap;html=1;fontSize=16;" vertex="1" parent="1">
          <mxGeometry x="430" y="1210" width="100" height="60" as="geometry" />
        </mxCell>
        <mxCell id="PPz21u3cp9W0feoR--M8-52" value="生产配送" style="rounded=1;whiteSpace=wrap;html=1;fontSize=16;arcSize=50;" vertex="1" parent="1">
          <mxGeometry x="578.75" y="1429" width="120" height="60" as="geometry" />
        </mxCell>
        <mxCell id="PPz21u3cp9W0feoR--M8-53" value="&lt;font style=&quot;font-size: 16px;&quot;&gt;其他系统&lt;/font&gt;" style="rounded=0;whiteSpace=wrap;html=1;fontSize=16;textDirection=vertical-lr;" vertex="1" parent="1">
          <mxGeometry x="38.75" y="1399" width="40" height="120" as="geometry" />
        </mxCell>
        <mxCell id="PPz21u3cp9W0feoR--M8-55" value="" style="endArrow=none;dashed=1;html=1;rounded=0;exitX=1;exitY=1;exitDx=0;exitDy=0;" edge="1" parent="1">
          <mxGeometry width="50" height="50" relative="1" as="geometry">
            <mxPoint x="80" y="1400" as="sourcePoint" />
            <mxPoint x="720" y="1400" as="targetPoint" />
          </mxGeometry>
        </mxCell>
        <mxCell id="PPz21u3cp9W0feoR--M8-56" value="" style="endArrow=none;html=1;rounded=0;" edge="1" parent="1">
          <mxGeometry width="50" height="50" relative="1" as="geometry">
            <mxPoint x="38.75" y="1557" as="sourcePoint" />
            <mxPoint x="718.75" y="1557" as="targetPoint" />
          </mxGeometry>
        </mxCell>
        <mxCell id="PPz21u3cp9W0feoR--M8-57" value="" style="endArrow=none;html=1;rounded=0;entryX=0;entryY=1;entryDx=0;entryDy=0;" edge="1" parent="1" target="PPz21u3cp9W0feoR--M8-53">
          <mxGeometry width="50" height="50" relative="1" as="geometry">
            <mxPoint x="38.75" y="1556" as="sourcePoint" />
            <mxPoint x="58.75" y="1566" as="targetPoint" />
          </mxGeometry>
        </mxCell>
        <mxCell id="PPz21u3cp9W0feoR--M8-58" value="" style="endArrow=none;html=1;rounded=0;entryX=0;entryY=1;entryDx=0;entryDy=0;" edge="1" parent="1">
          <mxGeometry width="50" height="50" relative="1" as="geometry">
            <mxPoint x="78.75" y="1556" as="sourcePoint" />
            <mxPoint x="78.75" y="1516" as="targetPoint" />
          </mxGeometry>
        </mxCell>
        <mxCell id="PPz21u3cp9W0feoR--M8-66" style="edgeStyle=orthogonalEdgeStyle;rounded=0;orthogonalLoop=1;jettySize=auto;html=1;entryX=0.5;entryY=0;entryDx=0;entryDy=0;" edge="1" parent="1" source="PPz21u3cp9W0feoR--M8-61" target="PPz21u3cp9W0feoR--M8-64">
          <mxGeometry relative="1" as="geometry" />
        </mxCell>
        <mxCell id="PPz21u3cp9W0feoR--M8-61" value="创建客户账号" style="rounded=0;whiteSpace=wrap;html=1;fontSize=16;" vertex="1" parent="1">
          <mxGeometry x="428.75" y="1100" width="100" height="60" as="geometry" />
        </mxCell>
        <mxCell id="PPz21u3cp9W0feoR--M8-63" value="" style="endArrow=none;dashed=1;html=1;rounded=0;exitX=1;exitY=1;exitDx=0;exitDy=0;" edge="1" parent="1">
          <mxGeometry width="50" height="50" relative="1" as="geometry">
            <mxPoint x="80" y="1080" as="sourcePoint" />
            <mxPoint x="720" y="1080" as="targetPoint" />
          </mxGeometry>
        </mxCell>
        <mxCell id="PPz21u3cp9W0feoR--M8-67" style="edgeStyle=orthogonalEdgeStyle;rounded=0;orthogonalLoop=1;jettySize=auto;html=1;exitX=1;exitY=0.5;exitDx=0;exitDy=0;entryX=0;entryY=0.5;entryDx=0;entryDy=0;" edge="1" parent="1" source="PPz21u3cp9W0feoR--M8-64" target="PPz21u3cp9W0feoR--M8-51">
          <mxGeometry relative="1" as="geometry" />
        </mxCell>
        <mxCell id="PPz21u3cp9W0feoR--M8-64" value="维护门店和子账号" style="rounded=0;whiteSpace=wrap;html=1;fontSize=16;" vertex="1" parent="1">
          <mxGeometry x="270" y="1210" width="100" height="60" as="geometry" />
        </mxCell>
        <mxCell id="PPz21u3cp9W0feoR--M8-69" style="edgeStyle=orthogonalEdgeStyle;rounded=0;orthogonalLoop=1;jettySize=auto;html=1;entryX=0;entryY=0.5;entryDx=0;entryDy=0;exitX=0.5;exitY=1;exitDx=0;exitDy=0;" edge="1" parent="1" source="PPz21u3cp9W0feoR--M8-65" target="PPz21u3cp9W0feoR--M8-52">
          <mxGeometry relative="1" as="geometry" />
        </mxCell>
        <mxCell id="PPz21u3cp9W0feoR--M8-65" value="提交订单" style="rounded=0;whiteSpace=wrap;html=1;fontSize=16;" vertex="1" parent="1">
          <mxGeometry x="270" y="1310" width="100" height="60" as="geometry" />
        </mxCell>
        <mxCell id="PPz21u3cp9W0feoR--M8-70" value="" style="endArrow=none;html=1;rounded=0;exitX=1;exitY=1;exitDx=0;exitDy=0;" edge="1" parent="1" source="PPz21u3cp9W0feoR--M8-53">
          <mxGeometry width="50" height="50" relative="1" as="geometry">
            <mxPoint x="290" y="1510" as="sourcePoint" />
            <mxPoint x="720" y="1519" as="targetPoint" />
          </mxGeometry>
        </mxCell>
      </root>
    </mxGraphModel>
  </diagram>
  <diagram id="xTytWM-lkKq4P6h2C1C4" name="应用架构示例">
    <mxGraphModel dx="934" dy="611" grid="1" gridSize="10" guides="1" tooltips="1" connect="1" arrows="1" fold="1" page="1" pageScale="1" pageWidth="827" pageHeight="1169" math="0" shadow="0">
      <root>
        <mxCell id="0" />
        <mxCell id="1" parent="0" />
        <mxCell id="2E5pUAiwpo1G2SeUnC8Q-5" value="" style="rounded=0;whiteSpace=wrap;html=1;fillColor=none;dashed=1;" vertex="1" parent="1">
          <mxGeometry x="139" y="66" width="680" height="70" as="geometry" />
        </mxCell>
        <mxCell id="2E5pUAiwpo1G2SeUnC8Q-17" value="" style="rounded=0;whiteSpace=wrap;html=1;fillColor=none;dashed=1;" vertex="1" parent="1">
          <mxGeometry x="139" y="160" width="680" height="70" as="geometry" />
        </mxCell>
        <mxCell id="2E5pUAiwpo1G2SeUnC8Q-1" value="官网" style="rounded=0;whiteSpace=wrap;html=1;fontSize=16;" vertex="1" parent="1">
          <mxGeometry x="159" y="80" width="120" height="40" as="geometry" />
        </mxCell>
        <mxCell id="2E5pUAiwpo1G2SeUnC8Q-2" value="C端商城" style="rounded=0;whiteSpace=wrap;html=1;fontSize=16;" vertex="1" parent="1">
          <mxGeometry x="319" y="80" width="120" height="40" as="geometry" />
        </mxCell>
        <mxCell id="2E5pUAiwpo1G2SeUnC8Q-3" value="分销商城前台" style="rounded=0;whiteSpace=wrap;html=1;fontSize=16;fillColor=#808080;" vertex="1" parent="1">
          <mxGeometry x="479" y="80" width="120" height="40" as="geometry" />
        </mxCell>
        <mxCell id="2E5pUAiwpo1G2SeUnC8Q-4" value="分销客户管理后台" style="rounded=0;whiteSpace=wrap;html=1;fontSize=16;fillColor=#808080;" vertex="1" parent="1">
          <mxGeometry x="639" y="80" width="160" height="40" as="geometry" />
        </mxCell>
        <mxCell id="2E5pUAiwpo1G2SeUnC8Q-6" value="对外系统" style="text;html=1;align=right;verticalAlign=middle;whiteSpace=wrap;rounded=0;fontSize=16;" vertex="1" parent="1">
          <mxGeometry y="85" width="130" height="30" as="geometry" />
        </mxCell>
        <mxCell id="2E5pUAiwpo1G2SeUnC8Q-13" value="商城后台" style="rounded=0;whiteSpace=wrap;html=1;fontSize=16;" vertex="1" parent="1">
          <mxGeometry x="159" y="174" width="120" height="40" as="geometry" />
        </mxCell>
        <mxCell id="2E5pUAiwpo1G2SeUnC8Q-14" value="订单中心" style="rounded=0;whiteSpace=wrap;html=1;fontSize=16;fillColor=#CCCCCC;" vertex="1" parent="1">
          <mxGeometry x="319" y="174" width="120" height="40" as="geometry" />
        </mxCell>
        <mxCell id="2E5pUAiwpo1G2SeUnC8Q-15" value="分销运营管理后台" style="rounded=0;whiteSpace=wrap;html=1;fontSize=16;fillColor=#808080;" vertex="1" parent="1">
          <mxGeometry x="479" y="174" width="201" height="40" as="geometry" />
        </mxCell>
        <mxCell id="2E5pUAiwpo1G2SeUnC8Q-18" value="管理中后台" style="text;html=1;align=right;verticalAlign=middle;whiteSpace=wrap;rounded=0;fontSize=16;" vertex="1" parent="1">
          <mxGeometry y="179" width="130" height="30" as="geometry" />
        </mxCell>
        <mxCell id="2E5pUAiwpo1G2SeUnC8Q-19" value="" style="rounded=0;whiteSpace=wrap;html=1;fillColor=none;dashed=1;" vertex="1" parent="1">
          <mxGeometry x="139" y="250" width="680" height="70" as="geometry" />
        </mxCell>
        <mxCell id="2E5pUAiwpo1G2SeUnC8Q-20" value="CRM" style="rounded=0;whiteSpace=wrap;html=1;fontSize=16;" vertex="1" parent="1">
          <mxGeometry x="159" y="264" width="120" height="40" as="geometry" />
        </mxCell>
        <mxCell id="2E5pUAiwpo1G2SeUnC8Q-21" value="CallCenter" style="rounded=0;whiteSpace=wrap;html=1;fontSize=16;" vertex="1" parent="1">
          <mxGeometry x="319" y="264" width="120" height="40" as="geometry" />
        </mxCell>
        <mxCell id="2E5pUAiwpo1G2SeUnC8Q-22" value="WMS" style="rounded=0;whiteSpace=wrap;html=1;fontSize=16;fillColor=#CCCCCC;" vertex="1" parent="1">
          <mxGeometry x="479" y="264" width="120" height="40" as="geometry" />
        </mxCell>
        <mxCell id="2E5pUAiwpo1G2SeUnC8Q-23" value="TMS" style="rounded=0;whiteSpace=wrap;html=1;fontSize=16;fillColor=#CCCCCC;" vertex="1" parent="1">
          <mxGeometry x="639" y="264" width="160" height="40" as="geometry" />
        </mxCell>
        <mxCell id="2E5pUAiwpo1G2SeUnC8Q-24" value="业务单元支持系统" style="text;html=1;align=right;verticalAlign=middle;whiteSpace=wrap;rounded=0;fontSize=16;" vertex="1" parent="1">
          <mxGeometry y="269" width="130" height="30" as="geometry" />
        </mxCell>
        <mxCell id="2E5pUAiwpo1G2SeUnC8Q-25" value="" style="rounded=0;whiteSpace=wrap;html=1;fillColor=none;dashed=1;" vertex="1" parent="1">
          <mxGeometry x="139" y="340" width="680" height="70" as="geometry" />
        </mxCell>
        <mxCell id="2E5pUAiwpo1G2SeUnC8Q-26" value="Finance" style="rounded=0;whiteSpace=wrap;html=1;fontSize=16;" vertex="1" parent="1">
          <mxGeometry x="159" y="354" width="120" height="40" as="geometry" />
        </mxCell>
        <mxCell id="2E5pUAiwpo1G2SeUnC8Q-27" value="OA" style="rounded=0;whiteSpace=wrap;html=1;fontSize=16;" vertex="1" parent="1">
          <mxGeometry x="319" y="354" width="120" height="40" as="geometry" />
        </mxCell>
        <mxCell id="2E5pUAiwpo1G2SeUnC8Q-28" value="HRM" style="rounded=0;whiteSpace=wrap;html=1;fontSize=16;fillColor=#FFFFFF;" vertex="1" parent="1">
          <mxGeometry x="479" y="354" width="120" height="40" as="geometry" />
        </mxCell>
        <mxCell id="2E5pUAiwpo1G2SeUnC8Q-29" value="Mail" style="rounded=0;whiteSpace=wrap;html=1;fontSize=16;fillColor=#FFFFFF;" vertex="1" parent="1">
          <mxGeometry x="639" y="354" width="160" height="40" as="geometry" />
        </mxCell>
        <mxCell id="2E5pUAiwpo1G2SeUnC8Q-30" value="职能单元支持系统" style="text;html=1;align=right;verticalAlign=middle;whiteSpace=wrap;rounded=0;fontSize=16;" vertex="1" parent="1">
          <mxGeometry y="359" width="130" height="30" as="geometry" />
        </mxCell>
        <mxCell id="2E5pUAiwpo1G2SeUnC8Q-31" value="" style="rounded=0;whiteSpace=wrap;html=1;fillColor=none;dashed=1;" vertex="1" parent="1">
          <mxGeometry x="139" y="430" width="680" height="70" as="geometry" />
        </mxCell>
        <mxCell id="2E5pUAiwpo1G2SeUnC8Q-32" value="Passport" style="rounded=0;whiteSpace=wrap;html=1;fontSize=16;fillColor=#CCCCCC;" vertex="1" parent="1">
          <mxGeometry x="159" y="444" width="120" height="40" as="geometry" />
        </mxCell>
        <mxCell id="2E5pUAiwpo1G2SeUnC8Q-33" value="Auth" style="rounded=0;whiteSpace=wrap;html=1;fontSize=16;fillColor=#CCCCCC;" vertex="1" parent="1">
          <mxGeometry x="313" y="444" width="101" height="40" as="geometry" />
        </mxCell>
        <mxCell id="2E5pUAiwpo1G2SeUnC8Q-36" value="基础架构支持系统" style="text;html=1;align=right;verticalAlign=middle;whiteSpace=wrap;rounded=0;fontSize=16;" vertex="1" parent="1">
          <mxGeometry y="449" width="130" height="30" as="geometry" />
        </mxCell>
        <mxCell id="2E5pUAiwpo1G2SeUnC8Q-37" value="GIS" style="rounded=0;whiteSpace=wrap;html=1;fontSize=16;" vertex="1" parent="1">
          <mxGeometry x="439" y="445" width="100" height="40" as="geometry" />
        </mxCell>
        <mxCell id="2E5pUAiwpo1G2SeUnC8Q-38" value="Msg" style="rounded=0;whiteSpace=wrap;html=1;fontSize=16;" vertex="1" parent="1">
          <mxGeometry x="570" y="445" width="90" height="40" as="geometry" />
        </mxCell>
        <mxCell id="2E5pUAiwpo1G2SeUnC8Q-39" value="Pay" style="rounded=0;whiteSpace=wrap;html=1;fontSize=16;fillColor=#CCCCCC;" vertex="1" parent="1">
          <mxGeometry x="680" y="444" width="90" height="40" as="geometry" />
        </mxCell>
        <mxCell id="2E5pUAiwpo1G2SeUnC8Q-40" value="" style="rounded=0;whiteSpace=wrap;html=1;fillColor=none;dashed=1;" vertex="1" parent="1">
          <mxGeometry x="139" y="520" width="680" height="200" as="geometry" />
        </mxCell>
        <mxCell id="2E5pUAiwpo1G2SeUnC8Q-41" value="BI" style="rounded=0;whiteSpace=wrap;html=1;fontSize=16;fillColor=#FFFFFF;" vertex="1" parent="1">
          <mxGeometry x="159" y="534" width="201" height="40" as="geometry" />
        </mxCell>
        <mxCell id="2E5pUAiwpo1G2SeUnC8Q-43" value="数据底层和应用" style="text;html=1;align=right;verticalAlign=middle;whiteSpace=wrap;rounded=0;fontSize=16;" vertex="1" parent="1">
          <mxGeometry y="604" width="130" height="30" as="geometry" />
        </mxCell>
        <mxCell id="2E5pUAiwpo1G2SeUnC8Q-45" value="Data Mining" style="rounded=0;whiteSpace=wrap;html=1;fontSize=16;" vertex="1" parent="1">
          <mxGeometry x="400" y="534" width="220" height="40" as="geometry" />
        </mxCell>
        <mxCell id="2E5pUAiwpo1G2SeUnC8Q-46" value="MDM" style="rounded=0;whiteSpace=wrap;html=1;fontSize=16;fillColor=#CCCCCC;" vertex="1" parent="1">
          <mxGeometry x="650" y="534" width="150" height="166" as="geometry" />
        </mxCell>
        <mxCell id="2E5pUAiwpo1G2SeUnC8Q-47" value="Data Mart" style="rounded=0;whiteSpace=wrap;html=1;fontSize=16;fillColor=#FFFFFF;" vertex="1" parent="1">
          <mxGeometry x="159" y="597" width="141" height="40" as="geometry" />
        </mxCell>
        <mxCell id="2E5pUAiwpo1G2SeUnC8Q-48" value="Data Mart" style="rounded=0;whiteSpace=wrap;html=1;fontSize=16;fillColor=#FFFFFF;" vertex="1" parent="1">
          <mxGeometry x="319" y="597" width="141" height="40" as="geometry" />
        </mxCell>
        <mxCell id="2E5pUAiwpo1G2SeUnC8Q-49" value="Data Mart" style="rounded=0;whiteSpace=wrap;html=1;fontSize=16;fillColor=#FFFFFF;" vertex="1" parent="1">
          <mxGeometry x="479" y="597" width="141" height="40" as="geometry" />
        </mxCell>
        <mxCell id="2E5pUAiwpo1G2SeUnC8Q-50" value="Data Warehouse" style="rounded=0;whiteSpace=wrap;html=1;fontSize=16;fillColor=#FFFFFF;" vertex="1" parent="1">
          <mxGeometry x="159" y="660" width="461" height="40" as="geometry" />
        </mxCell>
      </root>
    </mxGraphModel>
  </diagram>
  <diagram id="nJLARec5QSQ_69eRO-5N" name="功能模块示例-演进蓝图">
    <mxGraphModel dx="1444" dy="944" grid="1" gridSize="10" guides="1" tooltips="1" connect="1" arrows="1" fold="1" page="1" pageScale="1" pageWidth="827" pageHeight="1169" math="0" shadow="0">
      <root>
        <mxCell id="0" />
        <mxCell id="1" parent="0" />
        <mxCell id="SvVmdMdofAhq--DiwgBk-43" value="" style="rounded=0;whiteSpace=wrap;html=1;fillColor=none;" vertex="1" parent="1">
          <mxGeometry x="189" y="232" width="241" height="106" as="geometry" />
        </mxCell>
        <mxCell id="SvVmdMdofAhq--DiwgBk-8" value="" style="rounded=0;whiteSpace=wrap;html=1;fillColor=none;" vertex="1" parent="1">
          <mxGeometry x="55" y="70" width="370" height="106" as="geometry" />
        </mxCell>
        <mxCell id="SvVmdMdofAhq--DiwgBk-1" value="" style="endArrow=none;dashed=1;html=1;rounded=0;" edge="1" parent="1">
          <mxGeometry width="50" height="50" relative="1" as="geometry">
            <mxPoint y="200" as="sourcePoint" />
            <mxPoint x="820" y="200" as="targetPoint" />
          </mxGeometry>
        </mxCell>
        <mxCell id="SvVmdMdofAhq--DiwgBk-2" value="首页" style="rounded=0;whiteSpace=wrap;html=1;fontSize=16;" vertex="1" parent="1">
          <mxGeometry x="65" y="88" width="100" height="30" as="geometry" />
        </mxCell>
        <mxCell id="SvVmdMdofAhq--DiwgBk-9" value="搜索/推荐" style="rounded=0;whiteSpace=wrap;html=1;fontSize=16;fillColor=#CCCCCC;" vertex="1" parent="1">
          <mxGeometry x="185" y="88" width="100" height="30" as="geometry" />
        </mxCell>
        <mxCell id="SvVmdMdofAhq--DiwgBk-10" value="列表/详情" style="rounded=0;whiteSpace=wrap;html=1;fontSize=16;" vertex="1" parent="1">
          <mxGeometry x="305" y="88" width="100" height="30" as="geometry" />
        </mxCell>
        <mxCell id="SvVmdMdofAhq--DiwgBk-11" value="购物车" style="rounded=0;whiteSpace=wrap;html=1;fontSize=16;" vertex="1" parent="1">
          <mxGeometry x="65" y="128" width="100" height="30" as="geometry" />
        </mxCell>
        <mxCell id="SvVmdMdofAhq--DiwgBk-12" value="结算" style="rounded=0;whiteSpace=wrap;html=1;fontSize=16;" vertex="1" parent="1">
          <mxGeometry x="185" y="128" width="100" height="30" as="geometry" />
        </mxCell>
        <mxCell id="SvVmdMdofAhq--DiwgBk-13" value="收银" style="rounded=0;whiteSpace=wrap;html=1;fontSize=16;" vertex="1" parent="1">
          <mxGeometry x="305" y="128" width="100" height="30" as="geometry" />
        </mxCell>
        <mxCell id="SvVmdMdofAhq--DiwgBk-14" value="购买流程" style="text;html=1;align=center;verticalAlign=middle;whiteSpace=wrap;rounded=0;fontSize=16;" vertex="1" parent="1">
          <mxGeometry x="55" y="38" width="370" height="40" as="geometry" />
        </mxCell>
        <mxCell id="SvVmdMdofAhq--DiwgBk-15" value="" style="rounded=0;whiteSpace=wrap;html=1;fillColor=none;" vertex="1" parent="1">
          <mxGeometry x="442" y="70" width="370" height="106" as="geometry" />
        </mxCell>
        <mxCell id="SvVmdMdofAhq--DiwgBk-16" value="账号维护" style="rounded=0;whiteSpace=wrap;html=1;fontSize=16;fillColor=#CCCCCC;" vertex="1" parent="1">
          <mxGeometry x="452" y="88" width="100" height="30" as="geometry" />
        </mxCell>
        <mxCell id="SvVmdMdofAhq--DiwgBk-17" value="订单管理" style="rounded=0;whiteSpace=wrap;html=1;fontSize=16;" vertex="1" parent="1">
          <mxGeometry x="572" y="88" width="100" height="30" as="geometry" />
        </mxCell>
        <mxCell id="SvVmdMdofAhq--DiwgBk-18" value="发票管理" style="rounded=0;whiteSpace=wrap;html=1;fontSize=16;fillColor=#CCCCCC;" vertex="1" parent="1">
          <mxGeometry x="692" y="88" width="100" height="30" as="geometry" />
        </mxCell>
        <mxCell id="SvVmdMdofAhq--DiwgBk-19" value="门店维护" style="rounded=0;whiteSpace=wrap;html=1;fontSize=16;fillColor=#CCCCCC;" vertex="1" parent="1">
          <mxGeometry x="452" y="128" width="100" height="30" as="geometry" />
        </mxCell>
        <mxCell id="SvVmdMdofAhq--DiwgBk-20" value="售后管理" style="rounded=0;whiteSpace=wrap;html=1;fontSize=16;" vertex="1" parent="1">
          <mxGeometry x="572" y="128" width="100" height="30" as="geometry" />
        </mxCell>
        <mxCell id="SvVmdMdofAhq--DiwgBk-21" value="对账管理" style="rounded=0;whiteSpace=wrap;html=1;fontSize=16;" vertex="1" parent="1">
          <mxGeometry x="692" y="128" width="100" height="30" as="geometry" />
        </mxCell>
        <mxCell id="SvVmdMdofAhq--DiwgBk-22" value="个人中心" style="text;html=1;align=center;verticalAlign=middle;whiteSpace=wrap;rounded=0;fontSize=16;" vertex="1" parent="1">
          <mxGeometry x="442" y="38" width="370" height="40" as="geometry" />
        </mxCell>
        <mxCell id="SvVmdMdofAhq--DiwgBk-23" value="" style="endArrow=none;dashed=1;html=1;rounded=0;" edge="1" parent="1">
          <mxGeometry width="50" height="50" relative="1" as="geometry">
            <mxPoint x="40" y="660" as="sourcePoint" />
            <mxPoint x="40" y="30" as="targetPoint" />
          </mxGeometry>
        </mxCell>
        <mxCell id="SvVmdMdofAhq--DiwgBk-24" value="分销商城前台" style="text;html=1;align=center;verticalAlign=middle;whiteSpace=wrap;rounded=0;fontSize=16;" vertex="1" parent="1">
          <mxGeometry x="6" y="58" width="30" height="130" as="geometry" />
        </mxCell>
        <mxCell id="SvVmdMdofAhq--DiwgBk-25" value="客户管理后台" style="text;html=1;align=center;verticalAlign=middle;whiteSpace=wrap;rounded=0;fontSize=16;" vertex="1" parent="1">
          <mxGeometry x="6" y="220" width="30" height="130" as="geometry" />
        </mxCell>
        <mxCell id="SvVmdMdofAhq--DiwgBk-26" value="" style="rounded=0;whiteSpace=wrap;html=1;fillColor=none;" vertex="1" parent="1">
          <mxGeometry x="55" y="232" width="125" height="106" as="geometry" />
        </mxCell>
        <mxCell id="SvVmdMdofAhq--DiwgBk-27" value="子账号管理" style="rounded=0;whiteSpace=wrap;html=1;fontSize=16;" vertex="1" parent="1">
          <mxGeometry x="65" y="250" width="100" height="30" as="geometry" />
        </mxCell>
        <mxCell id="SvVmdMdofAhq--DiwgBk-28" value="门店报表" style="rounded=0;whiteSpace=wrap;html=1;fontSize=16;fillColor=#CCCCCC;" vertex="1" parent="1">
          <mxGeometry x="200" y="250" width="100" height="30" as="geometry" />
        </mxCell>
        <mxCell id="SvVmdMdofAhq--DiwgBk-29" value="订单查询" style="rounded=0;whiteSpace=wrap;html=1;fontSize=16;" vertex="1" parent="1">
          <mxGeometry x="314" y="250" width="100" height="30" as="geometry" />
        </mxCell>
        <mxCell id="SvVmdMdofAhq--DiwgBk-30" value="门店管理" style="rounded=0;whiteSpace=wrap;html=1;fontSize=16;" vertex="1" parent="1">
          <mxGeometry x="65" y="290" width="100" height="30" as="geometry" />
        </mxCell>
        <mxCell id="SvVmdMdofAhq--DiwgBk-31" value="综合报表" style="rounded=0;whiteSpace=wrap;html=1;fontSize=16;fillColor=#CCCCCC;" vertex="1" parent="1">
          <mxGeometry x="200" y="290" width="100" height="30" as="geometry" />
        </mxCell>
        <mxCell id="SvVmdMdofAhq--DiwgBk-32" value="售后查询" style="rounded=0;whiteSpace=wrap;html=1;fontSize=16;" vertex="1" parent="1">
          <mxGeometry x="314" y="290" width="100" height="30" as="geometry" />
        </mxCell>
        <mxCell id="SvVmdMdofAhq--DiwgBk-33" value="客户管理" style="text;html=1;align=center;verticalAlign=middle;whiteSpace=wrap;rounded=0;fontSize=16;" vertex="1" parent="1">
          <mxGeometry x="55" y="200" width="125" height="40" as="geometry" />
        </mxCell>
        <mxCell id="SvVmdMdofAhq--DiwgBk-34" value="" style="rounded=0;whiteSpace=wrap;html=1;fillColor=none;" vertex="1" parent="1">
          <mxGeometry x="442" y="232" width="258" height="106" as="geometry" />
        </mxCell>
        <mxCell id="SvVmdMdofAhq--DiwgBk-35" value="对账管理" style="rounded=0;whiteSpace=wrap;html=1;fontSize=16;" vertex="1" parent="1">
          <mxGeometry x="452" y="250" width="100" height="30" as="geometry" />
        </mxCell>
        <mxCell id="SvVmdMdofAhq--DiwgBk-36" value="预付款管理" style="rounded=0;whiteSpace=wrap;html=1;fontSize=16;fillColor=#CCCCCC;" vertex="1" parent="1">
          <mxGeometry x="572" y="250" width="100" height="30" as="geometry" />
        </mxCell>
        <mxCell id="SvVmdMdofAhq--DiwgBk-38" value="发票管理" style="rounded=0;whiteSpace=wrap;html=1;fontSize=16;fillColor=#CCCCCC;" vertex="1" parent="1">
          <mxGeometry x="452" y="290" width="100" height="30" as="geometry" />
        </mxCell>
        <mxCell id="SvVmdMdofAhq--DiwgBk-41" value="财务管理" style="text;html=1;align=center;verticalAlign=middle;whiteSpace=wrap;rounded=0;fontSize=16;" vertex="1" parent="1">
          <mxGeometry x="442" y="200" width="258" height="40" as="geometry" />
        </mxCell>
        <mxCell id="SvVmdMdofAhq--DiwgBk-42" value="综合查询" style="text;html=1;align=center;verticalAlign=middle;whiteSpace=wrap;rounded=0;fontSize=16;" vertex="1" parent="1">
          <mxGeometry x="194" y="200" width="226" height="40" as="geometry" />
        </mxCell>
        <mxCell id="SvVmdMdofAhq--DiwgBk-44" value="" style="endArrow=none;dashed=1;html=1;rounded=0;" edge="1" parent="1">
          <mxGeometry width="50" height="50" relative="1" as="geometry">
            <mxPoint y="360" as="sourcePoint" />
            <mxPoint x="820" y="360" as="targetPoint" />
          </mxGeometry>
        </mxCell>
        <mxCell id="SvVmdMdofAhq--DiwgBk-45" value="运营管理后台" style="text;html=1;align=center;verticalAlign=middle;whiteSpace=wrap;rounded=0;fontSize=16;" vertex="1" parent="1">
          <mxGeometry x="6" y="410" width="30" height="130" as="geometry" />
        </mxCell>
        <mxCell id="SvVmdMdofAhq--DiwgBk-46" value="" style="rounded=0;whiteSpace=wrap;html=1;fillColor=none;" vertex="1" parent="1">
          <mxGeometry x="55" y="392" width="125" height="106" as="geometry" />
        </mxCell>
        <mxCell id="SvVmdMdofAhq--DiwgBk-47" value="账号管理" style="rounded=0;whiteSpace=wrap;html=1;fontSize=16;" vertex="1" parent="1">
          <mxGeometry x="65" y="410" width="100" height="30" as="geometry" />
        </mxCell>
        <mxCell id="SvVmdMdofAhq--DiwgBk-48" value="门店管理" style="rounded=0;whiteSpace=wrap;html=1;fontSize=16;" vertex="1" parent="1">
          <mxGeometry x="65" y="450" width="100" height="30" as="geometry" />
        </mxCell>
        <mxCell id="SvVmdMdofAhq--DiwgBk-49" value="客户管理" style="text;html=1;align=center;verticalAlign=middle;whiteSpace=wrap;rounded=0;fontSize=16;" vertex="1" parent="1">
          <mxGeometry x="55" y="360" width="125" height="40" as="geometry" />
        </mxCell>
        <mxCell id="SvVmdMdofAhq--DiwgBk-50" value="" style="rounded=0;whiteSpace=wrap;html=1;fillColor=none;" vertex="1" parent="1">
          <mxGeometry x="200" y="392" width="125" height="106" as="geometry" />
        </mxCell>
        <mxCell id="SvVmdMdofAhq--DiwgBk-51" value="回款监控" style="rounded=0;whiteSpace=wrap;html=1;fontSize=16;fillColor=#CCCCCC;" vertex="1" parent="1">
          <mxGeometry x="210" y="410" width="100" height="30" as="geometry" />
        </mxCell>
        <mxCell id="SvVmdMdofAhq--DiwgBk-52" value="规则设置" style="rounded=0;whiteSpace=wrap;html=1;fontSize=16;fillColor=#CCCCCC;" vertex="1" parent="1">
          <mxGeometry x="210" y="450" width="100" height="30" as="geometry" />
        </mxCell>
        <mxCell id="SvVmdMdofAhq--DiwgBk-53" value="账期管理" style="text;html=1;align=center;verticalAlign=middle;whiteSpace=wrap;rounded=0;fontSize=16;" vertex="1" parent="1">
          <mxGeometry x="200" y="360" width="125" height="40" as="geometry" />
        </mxCell>
        <mxCell id="SvVmdMdofAhq--DiwgBk-58" value="" style="rounded=0;whiteSpace=wrap;html=1;fillColor=none;" vertex="1" parent="1">
          <mxGeometry x="55" y="554" width="125" height="106" as="geometry" />
        </mxCell>
        <mxCell id="SvVmdMdofAhq--DiwgBk-59" value="定价风控" style="rounded=0;whiteSpace=wrap;html=1;fontSize=16;fillColor=#808080;" vertex="1" parent="1">
          <mxGeometry x="65" y="572" width="100" height="30" as="geometry" />
        </mxCell>
        <mxCell id="SvVmdMdofAhq--DiwgBk-60" value="订单风控" style="rounded=0;whiteSpace=wrap;html=1;fontSize=16;fillColor=#808080;" vertex="1" parent="1">
          <mxGeometry x="65" y="612" width="100" height="30" as="geometry" />
        </mxCell>
        <mxCell id="SvVmdMdofAhq--DiwgBk-61" value="风控管理" style="text;html=1;align=center;verticalAlign=middle;whiteSpace=wrap;rounded=0;fontSize=16;" vertex="1" parent="1">
          <mxGeometry x="55" y="522" width="125" height="40" as="geometry" />
        </mxCell>
        <mxCell id="SvVmdMdofAhq--DiwgBk-62" value="" style="rounded=0;whiteSpace=wrap;html=1;fillColor=none;" vertex="1" parent="1">
          <mxGeometry x="200" y="554" width="125" height="106" as="geometry" />
        </mxCell>
        <mxCell id="SvVmdMdofAhq--DiwgBk-63" value="CMS" style="rounded=0;whiteSpace=wrap;html=1;fontSize=16;fillColor=#808080;" vertex="1" parent="1">
          <mxGeometry x="210" y="572" width="100" height="30" as="geometry" />
        </mxCell>
        <mxCell id="SvVmdMdofAhq--DiwgBk-64" value="消息中心" style="rounded=0;whiteSpace=wrap;html=1;fontSize=16;fillColor=#808080;" vertex="1" parent="1">
          <mxGeometry x="210" y="612" width="100" height="30" as="geometry" />
        </mxCell>
        <mxCell id="SvVmdMdofAhq--DiwgBk-65" value="运营管理" style="text;html=1;align=center;verticalAlign=middle;whiteSpace=wrap;rounded=0;fontSize=16;" vertex="1" parent="1">
          <mxGeometry x="200" y="522" width="125" height="40" as="geometry" />
        </mxCell>
        <mxCell id="SvVmdMdofAhq--DiwgBk-66" value="" style="rounded=0;whiteSpace=wrap;html=1;fillColor=none;" vertex="1" parent="1">
          <mxGeometry x="370" y="392" width="410" height="68" as="geometry" />
        </mxCell>
        <mxCell id="SvVmdMdofAhq--DiwgBk-67" value="价格系数设置" style="rounded=0;whiteSpace=wrap;html=1;fontSize=16;fillColor=#CCCCCC;" vertex="1" parent="1">
          <mxGeometry x="380" y="410" width="130" height="30" as="geometry" />
        </mxCell>
        <mxCell id="SvVmdMdofAhq--DiwgBk-69" value="商品定价管理" style="text;html=1;align=center;verticalAlign=middle;whiteSpace=wrap;rounded=0;fontSize=16;" vertex="1" parent="1">
          <mxGeometry x="370" y="360" width="410" height="40" as="geometry" />
        </mxCell>
        <mxCell id="SvVmdMdofAhq--DiwgBk-70" value="门店价格管理" style="rounded=0;whiteSpace=wrap;html=1;fontSize=16;fillColor=#FFFFFF;" vertex="1" parent="1">
          <mxGeometry x="525" y="410" width="125" height="30" as="geometry" />
        </mxCell>
        <mxCell id="SvVmdMdofAhq--DiwgBk-71" value="商品管理" style="rounded=0;whiteSpace=wrap;html=1;fontSize=16;fillColor=#CCCCCC;" vertex="1" parent="1">
          <mxGeometry x="660" y="410" width="100" height="30" as="geometry" />
        </mxCell>
        <mxCell id="SvVmdMdofAhq--DiwgBk-72" value="" style="rounded=0;whiteSpace=wrap;html=1;fillColor=none;" vertex="1" parent="1">
          <mxGeometry x="370" y="492" width="410" height="68" as="geometry" />
        </mxCell>
        <mxCell id="SvVmdMdofAhq--DiwgBk-73" value="对账管理" style="rounded=0;whiteSpace=wrap;html=1;fontSize=16;fillColor=#FFFFFF;" vertex="1" parent="1">
          <mxGeometry x="380" y="510" width="130" height="30" as="geometry" />
        </mxCell>
        <mxCell id="SvVmdMdofAhq--DiwgBk-74" value="财务管理" style="text;html=1;align=center;verticalAlign=middle;whiteSpace=wrap;rounded=0;fontSize=16;" vertex="1" parent="1">
          <mxGeometry x="370" y="460" width="410" height="40" as="geometry" />
        </mxCell>
        <mxCell id="SvVmdMdofAhq--DiwgBk-75" value="发票管理" style="rounded=0;whiteSpace=wrap;html=1;fontSize=16;fillColor=#CCCCCC;" vertex="1" parent="1">
          <mxGeometry x="525" y="510" width="125" height="30" as="geometry" />
        </mxCell>
        <mxCell id="SvVmdMdofAhq--DiwgBk-76" value="预付款管理" style="rounded=0;whiteSpace=wrap;html=1;fontSize=16;fillColor=#CCCCCC;" vertex="1" parent="1">
          <mxGeometry x="660" y="510" width="100" height="30" as="geometry" />
        </mxCell>
        <mxCell id="SvVmdMdofAhq--DiwgBk-77" value="" style="rounded=0;whiteSpace=wrap;html=1;fillColor=none;" vertex="1" parent="1">
          <mxGeometry x="370" y="592" width="410" height="68" as="geometry" />
        </mxCell>
        <mxCell id="SvVmdMdofAhq--DiwgBk-78" value="报价分析" style="rounded=0;whiteSpace=wrap;html=1;fontSize=16;fillColor=#CCCCCC;" vertex="1" parent="1">
          <mxGeometry x="380" y="610" width="130" height="30" as="geometry" />
        </mxCell>
        <mxCell id="SvVmdMdofAhq--DiwgBk-79" value="报表管理" style="text;html=1;align=center;verticalAlign=middle;whiteSpace=wrap;rounded=0;fontSize=16;" vertex="1" parent="1">
          <mxGeometry x="370" y="560" width="410" height="40" as="geometry" />
        </mxCell>
        <mxCell id="SvVmdMdofAhq--DiwgBk-80" value="业绩分析" style="rounded=0;whiteSpace=wrap;html=1;fontSize=16;fillColor=#CCCCCC;" vertex="1" parent="1">
          <mxGeometry x="525" y="610" width="125" height="30" as="geometry" />
        </mxCell>
        <mxCell id="SvVmdMdofAhq--DiwgBk-81" value="客户分析" style="rounded=0;whiteSpace=wrap;html=1;fontSize=16;fillColor=#CCCCCC;" vertex="1" parent="1">
          <mxGeometry x="660" y="610" width="100" height="30" as="geometry" />
        </mxCell>
        <mxCell id="SvVmdMdofAhq--DiwgBk-83" value="" style="rounded=1;whiteSpace=wrap;html=1;fillColor=none;dashed=1;dashPattern=8 8;" vertex="1" parent="1">
          <mxGeometry x="390" y="690" width="380" height="60" as="geometry" />
        </mxCell>
        <mxCell id="SvVmdMdofAhq--DiwgBk-84" value="" style="rounded=0;whiteSpace=wrap;html=1;fontSize=16;fillColor=#FFFFFF;" vertex="1" parent="1">
          <mxGeometry x="414" y="709" width="56" height="21" as="geometry" />
        </mxCell>
        <mxCell id="SvVmdMdofAhq--DiwgBk-85" value="一期" style="text;html=1;align=center;verticalAlign=middle;whiteSpace=wrap;rounded=0;" vertex="1" parent="1">
          <mxGeometry x="472" y="704.5" width="48" height="30" as="geometry" />
        </mxCell>
        <mxCell id="SvVmdMdofAhq--DiwgBk-86" value="" style="rounded=0;whiteSpace=wrap;html=1;fontSize=16;fillColor=#CCCCCC;" vertex="1" parent="1">
          <mxGeometry x="534.5" y="709" width="56" height="21" as="geometry" />
        </mxCell>
        <mxCell id="SvVmdMdofAhq--DiwgBk-87" value="二期" style="text;html=1;align=center;verticalAlign=middle;whiteSpace=wrap;rounded=0;" vertex="1" parent="1">
          <mxGeometry x="592.5" y="704.5" width="48" height="30" as="geometry" />
        </mxCell>
        <mxCell id="SvVmdMdofAhq--DiwgBk-88" value="" style="rounded=0;whiteSpace=wrap;html=1;fontSize=16;fillColor=#808080;" vertex="1" parent="1">
          <mxGeometry x="654" y="709" width="56" height="21" as="geometry" />
        </mxCell>
        <mxCell id="SvVmdMdofAhq--DiwgBk-89" value="三期" style="text;html=1;align=center;verticalAlign=middle;whiteSpace=wrap;rounded=0;" vertex="1" parent="1">
          <mxGeometry x="712" y="704.5" width="48" height="30" as="geometry" />
        </mxCell>
      </root>
    </mxGraphModel>
  </diagram>
  <diagram id="Qfr9riTgxc7Kl1GhDnVf" name="细节方案设计-业务数据建模">
    <mxGraphModel dx="794" dy="519" grid="1" gridSize="10" guides="1" tooltips="1" connect="1" arrows="1" fold="1" page="1" pageScale="1" pageWidth="827" pageHeight="1169" math="0" shadow="0">
      <root>
        <mxCell id="0" />
        <mxCell id="1" parent="0" />
        <mxCell id="-PpXv1n4Fiz_wCEB8En2-1" value="&lt;p style=&quot;margin: 1.4em 0px; color: rgb(25, 27, 31); font-family: -apple-system, BlinkMacSystemFont, &amp;quot;Helvetica Neue&amp;quot;, &amp;quot;PingFang SC&amp;quot;, &amp;quot;Microsoft YaHei&amp;quot;, &amp;quot;Source Han Sans SC&amp;quot;, &amp;quot;Noto Sans CJK SC&amp;quot;, &amp;quot;WenQuanYi Micro Hei&amp;quot;, sans-serif; text-align: start; background-color: rgb(255, 255, 255);&quot; data-pid=&quot;88t9EvKJ&quot;&gt;&lt;font style=&quot;font-size: 12px;&quot;&gt;软件系统的模块和功能实际上就是对现实世界的对象和规则的抽象。而软件系统设计的难点恰恰在于合理地总结客观世界的对象和关系，并实现最基本的数据模型设计。只有总结并设计出正确的数据模型之后，才能思路清晰地完成功能模块和操作交互的设计。&lt;/font&gt;&lt;/p&gt;&lt;p style=&quot;margin: 1.4em 0px; color: rgb(25, 27, 31); font-family: -apple-system, BlinkMacSystemFont, &amp;quot;Helvetica Neue&amp;quot;, &amp;quot;PingFang SC&amp;quot;, &amp;quot;Microsoft YaHei&amp;quot;, &amp;quot;Source Han Sans SC&amp;quot;, &amp;quot;Noto Sans CJK SC&amp;quot;, &amp;quot;WenQuanYi Micro Hei&amp;quot;, sans-serif; text-align: start; background-color: rgb(255, 255, 255);&quot; data-pid=&quot;bCWHH_hB&quot;&gt;&lt;font style=&quot;font-size: 12px;&quot;&gt;很多产品经理常常忽略业务数据建模，只关注功能界面设计，最终陷入混乱的逻辑中。一定要在设计细节方案之初就进行业务数据建模。&lt;/font&gt;&lt;/p&gt;&lt;p style=&quot;margin: 1.4em 0px; color: rgb(25, 27, 31); font-family: -apple-system, BlinkMacSystemFont, &amp;quot;Helvetica Neue&amp;quot;, &amp;quot;PingFang SC&amp;quot;, &amp;quot;Microsoft YaHei&amp;quot;, &amp;quot;Source Han Sans SC&amp;quot;, &amp;quot;Noto Sans CJK SC&amp;quot;, &amp;quot;WenQuanYi Micro Hei&amp;quot;, sans-serif; text-align: start; background-color: rgb(255, 255, 255);&quot; data-pid=&quot;lxrNSpUe&quot;&gt;&lt;font style=&quot;font-size: 12px;&quot;&gt;业务数据建模的过程就是将业务对象及其之间的关系抽象出来的过程，一般用ER图（实体-联系图，Entity Relationship Diagram，要讨论一些对象的对应关系，是一对多还是多对多）呈现了业务数据建模的结果。&lt;/font&gt;&lt;/p&gt;" style="text;html=1;align=center;verticalAlign=middle;whiteSpace=wrap;rounded=0;" vertex="1" parent="1">
          <mxGeometry x="10" y="10" width="730" height="130" as="geometry" />
        </mxCell>
        <mxCell id="-PpXv1n4Fiz_wCEB8En2-2" value="客户模型的ER图" style="text;html=1;align=center;verticalAlign=middle;whiteSpace=wrap;rounded=0;" vertex="1" parent="1">
          <mxGeometry x="303" y="270" width="150" height="30" as="geometry" />
        </mxCell>
        <mxCell id="-PpXv1n4Fiz_wCEB8En2-4" value="收货人" style="swimlane;fontStyle=0;childLayout=stackLayout;horizontal=1;startSize=26;horizontalStack=0;resizeParent=1;resizeParentMax=0;resizeLast=0;collapsible=1;marginBottom=0;align=center;fontSize=14;" vertex="1" parent="1">
          <mxGeometry x="559" y="200" width="81" height="56" as="geometry" />
        </mxCell>
        <mxCell id="-PpXv1n4Fiz_wCEB8En2-8" value="机构" style="swimlane;fontStyle=0;childLayout=stackLayout;horizontal=1;startSize=26;horizontalStack=0;resizeParent=1;resizeParentMax=0;resizeLast=0;collapsible=1;marginBottom=0;align=center;fontSize=14;" vertex="1" parent="1">
          <mxGeometry x="239" y="200" width="81" height="56" as="geometry" />
        </mxCell>
        <mxCell id="-PpXv1n4Fiz_wCEB8En2-9" value="上级机构" style="text;strokeColor=none;fillColor=none;spacingLeft=4;spacingRight=4;overflow=hidden;rotatable=0;points=[[0,0.5],[1,0.5]];portConstraint=eastwest;fontSize=12;whiteSpace=wrap;html=1;" vertex="1" parent="-PpXv1n4Fiz_wCEB8En2-8">
          <mxGeometry y="26" width="81" height="30" as="geometry" />
        </mxCell>
        <mxCell id="-PpXv1n4Fiz_wCEB8En2-12" value="门店" style="swimlane;fontStyle=0;childLayout=stackLayout;horizontal=1;startSize=26;horizontalStack=0;resizeParent=1;resizeParentMax=0;resizeLast=0;collapsible=1;marginBottom=0;align=center;fontSize=14;" vertex="1" parent="1">
          <mxGeometry x="399" y="200" width="81" height="56" as="geometry" />
        </mxCell>
        <mxCell id="-PpXv1n4Fiz_wCEB8En2-13" value="地址" style="text;strokeColor=none;fillColor=none;spacingLeft=4;spacingRight=4;overflow=hidden;rotatable=0;points=[[0,0.5],[1,0.5]];portConstraint=eastwest;fontSize=12;whiteSpace=wrap;html=1;" vertex="1" parent="-PpXv1n4Fiz_wCEB8En2-12">
          <mxGeometry y="26" width="81" height="30" as="geometry" />
        </mxCell>
        <mxCell id="-PpXv1n4Fiz_wCEB8En2-14" value="账号" style="swimlane;fontStyle=0;childLayout=stackLayout;horizontal=1;startSize=26;horizontalStack=0;resizeParent=1;resizeParentMax=0;resizeLast=0;collapsible=1;marginBottom=0;align=center;fontSize=14;" vertex="1" parent="1">
          <mxGeometry x="79" y="200" width="81" height="56" as="geometry" />
        </mxCell>
        <mxCell id="-PpXv1n4Fiz_wCEB8En2-15" value="" style="endArrow=none;html=1;rounded=0;exitX=0.5;exitY=0;exitDx=0;exitDy=0;edgeStyle=orthogonalEdgeStyle;entryX=0.5;entryY=0;entryDx=0;entryDy=0;" edge="1" parent="1" source="-PpXv1n4Fiz_wCEB8En2-14" target="-PpXv1n4Fiz_wCEB8En2-12">
          <mxGeometry relative="1" as="geometry">
            <mxPoint x="150" y="160" as="sourcePoint" />
            <mxPoint x="340" y="160" as="targetPoint" />
            <Array as="points">
              <mxPoint x="139" y="170" />
              <mxPoint x="459" y="170" />
            </Array>
          </mxGeometry>
        </mxCell>
        <mxCell id="-PpXv1n4Fiz_wCEB8En2-16" value="N" style="resizable=0;html=1;whiteSpace=wrap;align=left;verticalAlign=bottom;" connectable="0" vertex="1" parent="-PpXv1n4Fiz_wCEB8En2-15">
          <mxGeometry x="-1" relative="1" as="geometry" />
        </mxCell>
        <mxCell id="-PpXv1n4Fiz_wCEB8En2-17" value="N" style="resizable=0;html=1;whiteSpace=wrap;align=right;verticalAlign=bottom;" connectable="0" vertex="1" parent="-PpXv1n4Fiz_wCEB8En2-15">
          <mxGeometry x="1" relative="1" as="geometry" />
        </mxCell>
        <mxCell id="-PpXv1n4Fiz_wCEB8En2-18" value="" style="endArrow=none;html=1;rounded=0;exitX=1;exitY=0.5;exitDx=0;exitDy=0;" edge="1" parent="1">
          <mxGeometry relative="1" as="geometry">
            <mxPoint x="160" y="226" as="sourcePoint" />
            <mxPoint x="241" y="225" as="targetPoint" />
          </mxGeometry>
        </mxCell>
        <mxCell id="-PpXv1n4Fiz_wCEB8En2-19" value="N" style="resizable=0;html=1;whiteSpace=wrap;align=left;verticalAlign=bottom;" connectable="0" vertex="1" parent="-PpXv1n4Fiz_wCEB8En2-18">
          <mxGeometry x="-1" relative="1" as="geometry" />
        </mxCell>
        <mxCell id="-PpXv1n4Fiz_wCEB8En2-20" value="1" style="resizable=0;html=1;whiteSpace=wrap;align=right;verticalAlign=bottom;" connectable="0" vertex="1" parent="-PpXv1n4Fiz_wCEB8En2-18">
          <mxGeometry x="1" relative="1" as="geometry" />
        </mxCell>
        <mxCell id="-PpXv1n4Fiz_wCEB8En2-21" value="" style="endArrow=none;html=1;rounded=0;exitX=1.033;exitY=-0.022;exitDx=0;exitDy=0;exitPerimeter=0;" edge="1" parent="1">
          <mxGeometry relative="1" as="geometry">
            <mxPoint x="322.673" y="226.34000000000003" as="sourcePoint" />
            <mxPoint x="400" y="226" as="targetPoint" />
          </mxGeometry>
        </mxCell>
        <mxCell id="-PpXv1n4Fiz_wCEB8En2-22" value="1" style="resizable=0;html=1;whiteSpace=wrap;align=left;verticalAlign=bottom;" connectable="0" vertex="1" parent="-PpXv1n4Fiz_wCEB8En2-21">
          <mxGeometry x="-1" relative="1" as="geometry" />
        </mxCell>
        <mxCell id="-PpXv1n4Fiz_wCEB8En2-23" value="N" style="resizable=0;html=1;whiteSpace=wrap;align=right;verticalAlign=bottom;" connectable="0" vertex="1" parent="-PpXv1n4Fiz_wCEB8En2-21">
          <mxGeometry x="1" relative="1" as="geometry" />
        </mxCell>
        <mxCell id="-PpXv1n4Fiz_wCEB8En2-24" value="" style="endArrow=none;html=1;rounded=0;" edge="1" parent="1">
          <mxGeometry relative="1" as="geometry">
            <mxPoint x="482" y="226" as="sourcePoint" />
            <mxPoint x="559" y="225.5" as="targetPoint" />
          </mxGeometry>
        </mxCell>
        <mxCell id="-PpXv1n4Fiz_wCEB8En2-25" value="1" style="resizable=0;html=1;whiteSpace=wrap;align=left;verticalAlign=bottom;" connectable="0" vertex="1" parent="-PpXv1n4Fiz_wCEB8En2-24">
          <mxGeometry x="-1" relative="1" as="geometry" />
        </mxCell>
        <mxCell id="-PpXv1n4Fiz_wCEB8En2-26" value="N" style="resizable=0;html=1;whiteSpace=wrap;align=right;verticalAlign=bottom;" connectable="0" vertex="1" parent="-PpXv1n4Fiz_wCEB8En2-24">
          <mxGeometry x="1" relative="1" as="geometry" />
        </mxCell>
      </root>
    </mxGraphModel>
  </diagram>
  <diagram id="-OXg4XX4w1jQK-bKoov2" name="细节方案设计-分销业务">
    <mxGraphModel dx="1477" dy="741" grid="1" gridSize="10" guides="1" tooltips="1" connect="1" arrows="1" fold="1" page="1" pageScale="1" pageWidth="827" pageHeight="1169" math="0" shadow="0">
      <root>
        <mxCell id="0" />
        <mxCell id="1" parent="0" />
        <mxCell id="yj_qxqITB4bFjuksmjdn-5" value="&lt;span style=&quot;color: rgb(25, 27, 31); font-family: -apple-system, BlinkMacSystemFont, &amp;quot;Helvetica Neue&amp;quot;, &amp;quot;PingFang SC&amp;quot;, &amp;quot;Microsoft YaHei&amp;quot;, &amp;quot;Source Han Sans SC&amp;quot;, &amp;quot;Noto Sans CJK SC&amp;quot;, &amp;quot;WenQuanYi Micro Hei&amp;quot;, sans-serif; background-color: rgb(255, 255, 255);&quot;&gt;&lt;font style=&quot;font-size: 12px;&quot;&gt;基于前期业务调研得出的业务流程图，进一步区分不同的角色，描述不同角色在不同子系统中需要完成的具体工作，绘制出更细致的分角色的业务流程图&lt;/font&gt;&lt;/span&gt;" style="text;html=1;align=left;verticalAlign=middle;whiteSpace=wrap;rounded=0;" vertex="1" parent="1">
          <mxGeometry x="40" y="20" width="650" height="30" as="geometry" />
        </mxCell>
        <mxCell id="Q5sCYB8XmQLXVJfW1C80-1" value="&lt;font style=&quot;font-size: 16px;&quot;&gt;《分销业务流程图 - 创建维护客户与下单流程》&amp;nbsp;&lt;/font&gt;" style="rounded=0;whiteSpace=wrap;html=1;align=left;fontSize=16;" vertex="1" parent="1">
          <mxGeometry x="40" y="80" width="840" height="40" as="geometry" />
        </mxCell>
        <mxCell id="Q5sCYB8XmQLXVJfW1C80-2" value="&lt;font style=&quot;font-size: 16px;&quot;&gt;线下手工处理&lt;/font&gt;" style="rounded=0;whiteSpace=wrap;html=1;fontSize=16;textDirection=vertical-lr;" vertex="1" parent="1">
          <mxGeometry x="40" y="120" width="40" height="160" as="geometry" />
        </mxCell>
        <mxCell id="Q5sCYB8XmQLXVJfW1C80-3" value="&lt;font style=&quot;font-size: 16px;&quot;&gt;分销 - 销售&lt;/font&gt;" style="rounded=0;whiteSpace=wrap;html=1;fontSize=16;" vertex="1" parent="1">
          <mxGeometry x="80" y="120" width="160" height="30" as="geometry" />
        </mxCell>
        <mxCell id="Q5sCYB8XmQLXVJfW1C80-4" value="客户 - 管理员" style="rounded=0;whiteSpace=wrap;html=1;fontSize=16;" vertex="1" parent="1">
          <mxGeometry x="240" y="120" width="160" height="30" as="geometry" />
        </mxCell>
        <mxCell id="Q5sCYB8XmQLXVJfW1C80-5" value="&lt;font style=&quot;font-size: 16px;&quot;&gt;分销 -&amp;nbsp; 管理员&lt;/font&gt;" style="rounded=0;whiteSpace=wrap;html=1;fontSize=16;" vertex="1" parent="1">
          <mxGeometry x="559" y="120" width="160" height="30" as="geometry" />
        </mxCell>
        <mxCell id="Q5sCYB8XmQLXVJfW1C80-6" value="&lt;font style=&quot;font-size: 16px;&quot;&gt;分销 - 运营人员&lt;/font&gt;" style="rounded=0;whiteSpace=wrap;html=1;fontSize=16;" vertex="1" parent="1">
          <mxGeometry x="719" y="120" width="161" height="30" as="geometry" />
        </mxCell>
        <mxCell id="Q5sCYB8XmQLXVJfW1C80-7" style="edgeStyle=orthogonalEdgeStyle;rounded=0;orthogonalLoop=1;jettySize=auto;html=1;entryX=0;entryY=0.5;entryDx=0;entryDy=0;" edge="1" parent="1" source="Q5sCYB8XmQLXVJfW1C80-8" target="Q5sCYB8XmQLXVJfW1C80-10">
          <mxGeometry relative="1" as="geometry" />
        </mxCell>
        <mxCell id="Q5sCYB8XmQLXVJfW1C80-8" value="签订合同&lt;div&gt;提交审核&lt;/div&gt;" style="shape=hexagon;perimeter=hexagonPerimeter2;whiteSpace=wrap;html=1;fixedSize=1;fontSize=16;" vertex="1" parent="1">
          <mxGeometry x="100" y="170" width="110" height="60" as="geometry" />
        </mxCell>
        <mxCell id="Q5sCYB8XmQLXVJfW1C80-9" style="edgeStyle=orthogonalEdgeStyle;rounded=0;orthogonalLoop=1;jettySize=auto;html=1;entryX=0.5;entryY=0;entryDx=0;entryDy=0;" edge="1" parent="1" source="Q5sCYB8XmQLXVJfW1C80-10" target="Q5sCYB8XmQLXVJfW1C80-25">
          <mxGeometry relative="1" as="geometry" />
        </mxCell>
        <mxCell id="Q5sCYB8XmQLXVJfW1C80-10" value="审核" style="rounded=0;whiteSpace=wrap;html=1;fontSize=16;" vertex="1" parent="1">
          <mxGeometry x="759" y="170" width="100" height="60" as="geometry" />
        </mxCell>
        <mxCell id="Q5sCYB8XmQLXVJfW1C80-11" value="" style="endArrow=none;html=1;rounded=0;entryX=0;entryY=1;entryDx=0;entryDy=0;" edge="1" parent="1" target="Q5sCYB8XmQLXVJfW1C80-4">
          <mxGeometry width="50" height="50" relative="1" as="geometry">
            <mxPoint x="240" y="860" as="sourcePoint" />
            <mxPoint x="290" y="200" as="targetPoint" />
          </mxGeometry>
        </mxCell>
        <mxCell id="Q5sCYB8XmQLXVJfW1C80-12" value="" style="endArrow=none;html=1;rounded=0;entryX=0;entryY=1;entryDx=0;entryDy=0;" edge="1" parent="1">
          <mxGeometry width="50" height="50" relative="1" as="geometry">
            <mxPoint x="400" y="860" as="sourcePoint" />
            <mxPoint x="400" y="150" as="targetPoint" />
          </mxGeometry>
        </mxCell>
        <mxCell id="Q5sCYB8XmQLXVJfW1C80-13" value="" style="endArrow=none;html=1;rounded=0;entryX=0;entryY=1;entryDx=0;entryDy=0;" edge="1" parent="1">
          <mxGeometry width="50" height="50" relative="1" as="geometry">
            <mxPoint x="719" y="860" as="sourcePoint" />
            <mxPoint x="719" y="150" as="targetPoint" />
          </mxGeometry>
        </mxCell>
        <mxCell id="Q5sCYB8XmQLXVJfW1C80-14" value="" style="endArrow=none;html=1;rounded=0;entryX=0;entryY=1;entryDx=0;entryDy=0;" edge="1" parent="1">
          <mxGeometry width="50" height="50" relative="1" as="geometry">
            <mxPoint x="880" y="860" as="sourcePoint" />
            <mxPoint x="880" y="150" as="targetPoint" />
          </mxGeometry>
        </mxCell>
        <mxCell id="Q5sCYB8XmQLXVJfW1C80-15" value="&lt;font style=&quot;font-size: 16px;&quot;&gt;分销运营管理后台&lt;/font&gt;" style="rounded=0;whiteSpace=wrap;html=1;fontSize=16;textDirection=vertical-lr;" vertex="1" parent="1">
          <mxGeometry x="40" y="280" width="40" height="200" as="geometry" />
        </mxCell>
        <mxCell id="Q5sCYB8XmQLXVJfW1C80-38" style="edgeStyle=orthogonalEdgeStyle;rounded=0;orthogonalLoop=1;jettySize=auto;html=1;entryX=1;entryY=0.5;entryDx=0;entryDy=0;exitX=0.5;exitY=1;exitDx=0;exitDy=0;" edge="1" parent="1" source="Q5sCYB8XmQLXVJfW1C80-17" target="Q5sCYB8XmQLXVJfW1C80-37">
          <mxGeometry relative="1" as="geometry" />
        </mxCell>
        <mxCell id="Q5sCYB8XmQLXVJfW1C80-17" value="维护价格系数表" style="rounded=0;whiteSpace=wrap;html=1;fontSize=16;" vertex="1" parent="1">
          <mxGeometry x="759" y="390" width="100" height="60" as="geometry" />
        </mxCell>
        <mxCell id="Q5sCYB8XmQLXVJfW1C80-18" value="提交订单" style="rounded=1;whiteSpace=wrap;html=1;fontSize=16;arcSize=50;" vertex="1" parent="1">
          <mxGeometry x="421.25" y="720" width="98.75" height="40" as="geometry" />
        </mxCell>
        <mxCell id="Q5sCYB8XmQLXVJfW1C80-19" value="&lt;font style=&quot;font-size: 16px;&quot;&gt;分销商城前台&lt;/font&gt;" style="rounded=0;whiteSpace=wrap;html=1;fontSize=16;textDirection=vertical-lr;" vertex="1" parent="1">
          <mxGeometry x="40" y="679" width="40" height="138" as="geometry" />
        </mxCell>
        <mxCell id="Q5sCYB8XmQLXVJfW1C80-20" value="" style="endArrow=none;dashed=1;html=1;rounded=0;exitX=1;exitY=1;exitDx=0;exitDy=0;" edge="1" parent="1">
          <mxGeometry width="50" height="50" relative="1" as="geometry">
            <mxPoint x="81.25" y="480" as="sourcePoint" />
            <mxPoint x="721.25" y="480" as="targetPoint" />
          </mxGeometry>
        </mxCell>
        <mxCell id="Q5sCYB8XmQLXVJfW1C80-21" value="" style="endArrow=none;html=1;rounded=0;" edge="1" parent="1">
          <mxGeometry width="50" height="50" relative="1" as="geometry">
            <mxPoint x="40" y="856" as="sourcePoint" />
            <mxPoint x="880" y="856" as="targetPoint" />
          </mxGeometry>
        </mxCell>
        <mxCell id="Q5sCYB8XmQLXVJfW1C80-22" value="" style="endArrow=none;html=1;rounded=0;entryX=0;entryY=1;entryDx=0;entryDy=0;" edge="1" parent="1" target="Q5sCYB8XmQLXVJfW1C80-19">
          <mxGeometry width="50" height="50" relative="1" as="geometry">
            <mxPoint x="40" y="855" as="sourcePoint" />
            <mxPoint x="60" y="865" as="targetPoint" />
          </mxGeometry>
        </mxCell>
        <mxCell id="Q5sCYB8XmQLXVJfW1C80-23" value="" style="endArrow=none;html=1;rounded=0;entryX=0;entryY=1;entryDx=0;entryDy=0;" edge="1" parent="1">
          <mxGeometry width="50" height="50" relative="1" as="geometry">
            <mxPoint x="80" y="855" as="sourcePoint" />
            <mxPoint x="80" y="815" as="targetPoint" />
          </mxGeometry>
        </mxCell>
        <mxCell id="Q5sCYB8XmQLXVJfW1C80-33" style="edgeStyle=orthogonalEdgeStyle;rounded=0;orthogonalLoop=1;jettySize=auto;html=1;entryX=1;entryY=0.5;entryDx=0;entryDy=0;" edge="1" parent="1" source="Q5sCYB8XmQLXVJfW1C80-25" target="Q5sCYB8XmQLXVJfW1C80-32">
          <mxGeometry relative="1" as="geometry" />
        </mxCell>
        <mxCell id="Q5sCYB8XmQLXVJfW1C80-25" value="创建客户与客户管理员账号" style="rounded=0;whiteSpace=wrap;html=1;fontSize=16;" vertex="1" parent="1">
          <mxGeometry x="759" y="300" width="100" height="60" as="geometry" />
        </mxCell>
        <mxCell id="Q5sCYB8XmQLXVJfW1C80-26" value="" style="endArrow=none;dashed=1;html=1;rounded=0;exitX=1;exitY=1;exitDx=0;exitDy=0;" edge="1" parent="1">
          <mxGeometry width="50" height="50" relative="1" as="geometry">
            <mxPoint x="81.25" y="280" as="sourcePoint" />
            <mxPoint x="880" y="280" as="targetPoint" />
          </mxGeometry>
        </mxCell>
        <mxCell id="Q5sCYB8XmQLXVJfW1C80-31" value="" style="endArrow=none;html=1;rounded=0;exitX=1;exitY=1;exitDx=0;exitDy=0;" edge="1" parent="1" source="Q5sCYB8XmQLXVJfW1C80-19">
          <mxGeometry width="50" height="50" relative="1" as="geometry">
            <mxPoint x="291.25" y="809" as="sourcePoint" />
            <mxPoint x="880" y="820" as="targetPoint" />
          </mxGeometry>
        </mxCell>
        <mxCell id="Q5sCYB8XmQLXVJfW1C80-39" style="edgeStyle=orthogonalEdgeStyle;rounded=0;orthogonalLoop=1;jettySize=auto;html=1;entryX=0.5;entryY=0;entryDx=0;entryDy=0;" edge="1" parent="1" source="Q5sCYB8XmQLXVJfW1C80-32" target="Q5sCYB8XmQLXVJfW1C80-36">
          <mxGeometry relative="1" as="geometry" />
        </mxCell>
        <mxCell id="Q5sCYB8XmQLXVJfW1C80-32" value="审核并通过" style="rounded=0;whiteSpace=wrap;html=1;fontSize=16;" vertex="1" parent="1">
          <mxGeometry x="590.25" y="300" width="100" height="60" as="geometry" />
        </mxCell>
        <mxCell id="Q5sCYB8XmQLXVJfW1C80-34" value="&lt;font style=&quot;font-size: 16px;&quot;&gt;分销客户管理后台&lt;/font&gt;" style="rounded=0;whiteSpace=wrap;html=1;fontSize=16;textDirection=vertical-lr;" vertex="1" parent="1">
          <mxGeometry x="40" y="480" width="40" height="200" as="geometry" />
        </mxCell>
        <mxCell id="Q5sCYB8XmQLXVJfW1C80-35" value="" style="endArrow=none;dashed=1;html=1;rounded=0;exitX=1;exitY=1;exitDx=0;exitDy=0;" edge="1" parent="1">
          <mxGeometry width="50" height="50" relative="1" as="geometry">
            <mxPoint x="80" y="680" as="sourcePoint" />
            <mxPoint x="720" y="680" as="targetPoint" />
          </mxGeometry>
        </mxCell>
        <mxCell id="Q5sCYB8XmQLXVJfW1C80-40" style="edgeStyle=orthogonalEdgeStyle;rounded=0;orthogonalLoop=1;jettySize=auto;html=1;entryX=0;entryY=0.5;entryDx=0;entryDy=0;" edge="1" parent="1" source="Q5sCYB8XmQLXVJfW1C80-36" target="Q5sCYB8XmQLXVJfW1C80-17">
          <mxGeometry relative="1" as="geometry">
            <Array as="points">
              <mxPoint x="650" y="540" />
              <mxPoint x="650" y="420" />
            </Array>
          </mxGeometry>
        </mxCell>
        <mxCell id="Q5sCYB8XmQLXVJfW1C80-36" value="创建门店" style="rounded=0;whiteSpace=wrap;html=1;fontSize=16;" vertex="1" parent="1">
          <mxGeometry x="270" y="510" width="100" height="60" as="geometry" />
        </mxCell>
        <mxCell id="Q5sCYB8XmQLXVJfW1C80-43" style="edgeStyle=orthogonalEdgeStyle;rounded=0;orthogonalLoop=1;jettySize=auto;html=1;entryX=0;entryY=0.5;entryDx=0;entryDy=0;exitX=0.5;exitY=1;exitDx=0;exitDy=0;" edge="1" parent="1" source="Q5sCYB8XmQLXVJfW1C80-37" target="Q5sCYB8XmQLXVJfW1C80-18">
          <mxGeometry relative="1" as="geometry" />
        </mxCell>
        <mxCell id="Q5sCYB8XmQLXVJfW1C80-37" value="创建子账号并关联门店" style="rounded=0;whiteSpace=wrap;html=1;fontSize=16;" vertex="1" parent="1">
          <mxGeometry x="270" y="590" width="100" height="60" as="geometry" />
        </mxCell>
        <mxCell id="Q5sCYB8XmQLXVJfW1C80-41" value="客户 - 采购员" style="rounded=0;whiteSpace=wrap;html=1;fontSize=16;" vertex="1" parent="1">
          <mxGeometry x="400" y="120" width="160" height="30" as="geometry" />
        </mxCell>
        <mxCell id="Q5sCYB8XmQLXVJfW1C80-42" value="" style="endArrow=none;html=1;rounded=0;entryX=0;entryY=1;entryDx=0;entryDy=0;" edge="1" parent="1">
          <mxGeometry width="50" height="50" relative="1" as="geometry">
            <mxPoint x="560" y="860" as="sourcePoint" />
            <mxPoint x="560" y="150" as="targetPoint" />
          </mxGeometry>
        </mxCell>
      </root>
    </mxGraphModel>
  </diagram>
  <diagram id="WxsnKGfjxtZ7DLW7B6pj" name="细节方案设计-业务流转">
    <mxGraphModel dx="794" dy="519" grid="1" gridSize="10" guides="1" tooltips="1" connect="1" arrows="1" fold="1" page="1" pageScale="1" pageWidth="827" pageHeight="1169" math="0" shadow="0">
      <root>
        <mxCell id="0" />
        <mxCell id="1" parent="0" />
        <mxCell id="5nD0pTmhdH6hb8NAp5To-1" value="&lt;span style=&quot;color: rgb(25, 27, 31); font-family: -apple-system, BlinkMacSystemFont, &amp;quot;Helvetica Neue&amp;quot;, &amp;quot;PingFang SC&amp;quot;, &amp;quot;Microsoft YaHei&amp;quot;, &amp;quot;Source Han Sans SC&amp;quot;, &amp;quot;Noto Sans CJK SC&amp;quot;, &amp;quot;WenQuanYi Micro Hei&amp;quot;, sans-serif; background-color: rgb(255, 255, 255);&quot;&gt;&lt;font style=&quot;font-size: 12px;&quot;&gt;页面流转图描述的是，用户完成某项工作需要访问的页面及页面跳转顺序。绘制页面流转图可以帮设计人员审视、思考系统中的页面设计方案，包括系统中总共需要哪些页面，哪些页面可以重复使用，哪些页面需要定制化开发。一般来讲，我们绘制页面流转图时，都是针对某个单一角色绘制某个特定场景下的页面访问和跳转逻辑，从用户的视角来梳理一遍所有相关页面，每到一个新页面时，都要思考：需要新做一个页面，还是可以复用原有页面？最终整理出系统涉及的所有页面的初稿。&lt;/font&gt;&lt;/span&gt;" style="text;html=1;align=left;verticalAlign=middle;whiteSpace=wrap;rounded=0;" vertex="1" parent="1">
          <mxGeometry x="20" y="40" width="670" height="30" as="geometry" />
        </mxCell>
        <mxCell id="8APJVqP0QPuZ81G5rBIw-1" value="&lt;font style=&quot;font-size: 16px;&quot;&gt;1 首页&lt;/font&gt;" style="rounded=0;whiteSpace=wrap;html=1;" vertex="1" parent="1">
          <mxGeometry x="40" y="220" width="80" height="80" as="geometry" />
        </mxCell>
        <mxCell id="8APJVqP0QPuZ81G5rBIw-2" value="&lt;font style=&quot;font-size: 16px;&quot;&gt;2.1 客户列表页&lt;/font&gt;" style="rounded=0;whiteSpace=wrap;html=1;" vertex="1" parent="1">
          <mxGeometry x="240" y="140" width="80" height="80" as="geometry" />
        </mxCell>
        <mxCell id="8APJVqP0QPuZ81G5rBIw-3" value="&lt;font style=&quot;font-size: 16px;&quot;&gt;3.1 账号列表页&lt;/font&gt;" style="rounded=0;whiteSpace=wrap;html=1;" vertex="1" parent="1">
          <mxGeometry x="240" y="300" width="80" height="80" as="geometry" />
        </mxCell>
        <mxCell id="8APJVqP0QPuZ81G5rBIw-4" value="" style="strokeWidth=2;html=1;shape=mxgraph.flowchart.annotation_2;align=left;labelPosition=right;pointerEvents=1;" vertex="1" parent="1">
          <mxGeometry x="120" y="180" width="120" height="160" as="geometry" />
        </mxCell>
        <mxCell id="8APJVqP0QPuZ81G5rBIw-5" value="打开客户列表页" style="text;html=1;align=center;verticalAlign=middle;whiteSpace=wrap;rounded=0;fillColor=default;" vertex="1" parent="1">
          <mxGeometry x="130" y="200" width="100" height="30" as="geometry" />
        </mxCell>
        <mxCell id="8APJVqP0QPuZ81G5rBIw-7" value="打开账号列表页" style="text;html=1;align=center;verticalAlign=middle;whiteSpace=wrap;rounded=0;fillColor=default;" vertex="1" parent="1">
          <mxGeometry x="130" y="280" width="100" height="30" as="geometry" />
        </mxCell>
        <mxCell id="8APJVqP0QPuZ81G5rBIw-8" value="" style="endArrow=none;html=1;rounded=0;exitX=1;exitY=0.5;exitDx=0;exitDy=0;entryX=0;entryY=0.5;entryDx=0;entryDy=0;" edge="1" parent="1" source="8APJVqP0QPuZ81G5rBIw-2" target="8APJVqP0QPuZ81G5rBIw-10">
          <mxGeometry width="50" height="50" relative="1" as="geometry">
            <mxPoint x="364" y="205" as="sourcePoint" />
            <mxPoint x="440" y="180" as="targetPoint" />
            <Array as="points">
              <mxPoint x="390" y="180" />
            </Array>
          </mxGeometry>
        </mxCell>
        <mxCell id="8APJVqP0QPuZ81G5rBIw-9" value="" style="endArrow=none;html=1;rounded=0;exitX=1;exitY=0.5;exitDx=0;exitDy=0;entryX=0;entryY=0.5;entryDx=0;entryDy=0;" edge="1" parent="1" source="8APJVqP0QPuZ81G5rBIw-3" target="8APJVqP0QPuZ81G5rBIw-11">
          <mxGeometry width="50" height="50" relative="1" as="geometry">
            <mxPoint x="340" y="339" as="sourcePoint" />
            <mxPoint x="440" y="339" as="targetPoint" />
          </mxGeometry>
        </mxCell>
        <mxCell id="8APJVqP0QPuZ81G5rBIw-10" value="&lt;font style=&quot;font-size: 16px;&quot;&gt;2.2 客户创建/编辑页&lt;/font&gt;" style="rounded=0;whiteSpace=wrap;html=1;" vertex="1" parent="1">
          <mxGeometry x="440" y="140" width="80" height="80" as="geometry" />
        </mxCell>
        <mxCell id="8APJVqP0QPuZ81G5rBIw-11" value="&lt;font style=&quot;font-size: 16px;&quot;&gt;3.2 账号创建/编辑页&lt;/font&gt;" style="rounded=0;whiteSpace=wrap;html=1;" vertex="1" parent="1">
          <mxGeometry x="440" y="300" width="80" height="80" as="geometry" />
        </mxCell>
        <mxCell id="8APJVqP0QPuZ81G5rBIw-12" value="点击“创建客户”按钮" style="text;html=1;align=center;verticalAlign=middle;whiteSpace=wrap;rounded=0;fillColor=default;" vertex="1" parent="1">
          <mxGeometry x="350" y="155" width="50" height="50" as="geometry" />
        </mxCell>
        <mxCell id="8APJVqP0QPuZ81G5rBIw-13" value="点击“创建账号”按钮" style="text;html=1;align=center;verticalAlign=middle;whiteSpace=wrap;rounded=0;fillColor=default;" vertex="1" parent="1">
          <mxGeometry x="350" y="315" width="50" height="50" as="geometry" />
        </mxCell>
        <mxCell id="8APJVqP0QPuZ81G5rBIw-14" value="" style="rounded=1;whiteSpace=wrap;html=1;fillColor=none;" vertex="1" parent="1">
          <mxGeometry x="20" y="120" width="540" height="290" as="geometry" />
        </mxCell>
        <mxCell id="8APJVqP0QPuZ81G5rBIw-15" value="分销-运营人员：创建客户和客户管理员账号" style="text;html=1;align=center;verticalAlign=middle;whiteSpace=wrap;rounded=0;fillColor=default;" vertex="1" parent="1">
          <mxGeometry x="70" y="105" width="270" height="30" as="geometry" />
        </mxCell>
      </root>
    </mxGraphModel>
  </diagram>
</mxfile>
